<?xml version="1.0" encoding="UTF-8"?>
<!DOCTYPE svg PUBLIC "-//W3C//DTD SVG 1.1//EN" "http://www.w3.org/Graphics/SVG/1.1/DTD/svg11.dtd">
<!-- Creator: CorelDRAW -->
<svg xmlns="http://www.w3.org/2000/svg" xml:space="preserve" width="13.5776mm" height="16.9551mm" style="shape-rendering:geometricPrecision; text-rendering:geometricPrecision; image-rendering:optimizeQuality; fill-rule:evenodd; clip-rule:evenodd"
viewBox="0 0 2.71447 3.38971"
 xmlns:xlink="http://www.w3.org/1999/xlink">
 <defs>
  <style type="text/css">
   <![CDATA[
    .str0 {stroke:black;stroke-width:0.0624359}
    .fil2 {fill:none}
    .fil1 {fill:black}
    .fil0 {fill:black;fill-rule:nonzero}
   ]]>
  </style>
 </defs>
 <g id="Layer_x0020_1">
  <metadata id="CorelCorpID_0Corel-Layer"/>
  <path class="fil0" d="M1.09088 3.07905l-0.0753909 0 0 0.209919c0,0.0317278 0.0114756,0.0474817 0.0342868,0.0474817 0.00775701,0 0.0177132,-0.00209919 0.0298685,-0.00637754l0 0.0474817c-0.0137747,0.00519799 -0.0275694,0.00775701 -0.041344,0.00775701 -0.0525597,0 -0.0787296,-0.0312679 -0.0787296,-0.0939038l0 -0.212358 -0.131989 0 0 0.20726c0,0.0434232 -0.00359861,0.075031 -0.0107758,0.0949434l-0.0567381 0c0.00821683,-0.0196924 0.0122753,-0.0513002 0.0122753,-0.0949434l0 -0.20726c-0.0279092,0.00069973 -0.0553386,0.0106559 -0.0824282,0.0301084l0 -0.0508204c0.0168935,-0.0163337 0.0446828,-0.0244506 0.0831279,-0.0244506l0.317837 0 0 0.0451626z"/>
  <path id="1" class="fil0" d="M1.40026 3.37384c-0.0294087,0.0105359 -0.0661145,0.0158739 -0.110237,0.0158739 -0.044103,0 -0.0788496,-0.00927642 -0.10432,-0.0279092 -0.0254702,-0.0187528 -0.0382053,-0.0435432 -0.0382053,-0.0745712 0,-0.0209519 0.00787696,-0.0391249 0.0236109,-0.054519 0.0157539,-0.0154141 0.0364859,-0.0254902 0.062176,-0.0302283l0 -0.00139946c-0.0194525,-0.00403844 -0.036346,-0.0133149 -0.0508204,-0.0278892 -0.0144744,-0.0145944 -0.0216516,-0.0312679 -0.0216516,-0.0501406 0,-0.0306882 0.0120354,-0.0546589 0.0361261,-0.0719122 0.0240907,-0.0171334 0.0561583,-0.0256901 0.0964428,-0.0256901 0.0323075,0 0.0628757,0.00509803 0.0915847,0.0152741l0 0.0559184c-0.0300884,-0.0160938 -0.0617162,-0.0240707 -0.0949434,-0.0240707 -0.0486212,0 -0.0729319,0.0166736 -0.0729319,0.0499007 0,0.0169135 0.00913647,0.0305682 0.0274294,0.0409842 0.0182929,0.010416 0.0416839,0.015634 0.069933,0.015634 0.0164537,0 0.0297685,-0.000459823 0.0399446,-0.00137947l0 0.0495409c-0.0164337,-0.000919645 -0.0322875,-0.00137947 -0.0474617,-0.00137947 -0.0687735,0 -0.10306,0.0201522 -0.10306,0.0604367 0,0.0169135 0.00787696,0.0305682 0.0238508,0.0408642 0.0159938,0.010316 0.0384452,0.0154141 0.067394,0.0154141 0.0377454,0 0.0728319,-0.00823682 0.105139,-0.0247904l0 0.0560384z"/>
  <path id="12" class="fil0" d="M1.75132 3.07871l-0.132589 0 0 0.209559c0,0.0321876 0.0130949,0.0481814 0.0392648,0.0481814 0.0122753,0 0.0244306,-0.00219915 0.0367058,-0.00671741l0 0.0481614c-0.0149542,0.00497808 -0.0305682,0.00741714 -0.0467819,0.00741714 -0.0563982,0 -0.0845274,-0.0325474 -0.0845274,-0.0977223l0 -0.208879 -0.0478215 0c-0.02581,0 -0.0524398,0.00995616 -0.0800091,0.0298685l0 -0.0502406c0.0171334,-0.0163337 0.0442429,-0.0244506 0.0814086,-0.0244506l0.23435 0 0 0.0448227z"/>
  <path id="123" class="fil0" d="M2.20287 3.38126l-0.0630956 0 -0.0515401 -0.136387 -0.20632 0 -0.0485213 0.136387 -0.0634355 0 0.186648 -0.486412 0.0590372 0 0.187228 0.486412zm-0.133389 -0.187568l-0.0762906 -0.20726c-0.00243906,-0.00683736 -0.00497808,-0.0177132 -0.00741714,-0.0325274l-0.00137947 0c-0.0023191,0.0137747 -0.00487812,0.0245305 -0.007777,0.0325274l-0.0757108 0.20726 0.168575 0z"/>
  <path class="fil1" d="M1.16439 1.45208c-0.385131,-0.504945 -0.594131,-0.992977 -0.46682,-1.09008 0.127291,-0.0970825 0.542691,0.23353 0.927822,0.738455 0.385111,0.504925 0.594111,0.992977 0.46682,1.09006 -0.127311,0.0971025 -0.542711,-0.23351 -0.927822,-0.738435zm0.0174533 -0.0133149c-0.355943,-0.4667 -0.549128,-0.917766 -0.431473,-1.00751 0.117675,-0.0897454 0.501606,0.215837 0.857569,0.682517 0.355943,0.46668 0.549108,0.917766 0.431453,1.00751 -0.117655,0.0897454 -0.501606,-0.215837 -0.857549,-0.682517z"/>
  <path class="fil1" d="M1.62539 1.45208c0.385111,-0.504945 0.594111,-0.992977 0.46682,-1.09008 -0.127311,-0.0970825 -0.542711,0.23353 -0.927822,0.738455 -0.385131,0.504925 -0.594131,0.992977 -0.46682,1.09006 0.127291,0.0971025 0.542691,-0.23351 0.927822,-0.738435zm-0.0174533 -0.0133149c0.355943,-0.4667 0.549108,-0.917766 0.431453,-1.00751 -0.117655,-0.0897454 -0.501606,0.215837 -0.857549,0.682517 -0.355943,0.46668 -0.549128,0.917766 -0.431473,1.00751 0.117675,0.0897454 0.501606,-0.215837 0.857569,-0.682517z"/>
  <path class="fil1" d="M2.49988 1.23484c0.0194325,0 0.0352064,0.0157539 0.0352064,0.0352064 0,0.0194525 -0.0157739,0.0352064 -0.0352064,0.0352064 -0.0194525,0 -0.0352064,-0.0157539 -0.0352064,-0.0352064 0,-0.0194525 0.0157539,-0.0352064 0.0352064,-0.0352064zm-1.10499 -0.248484c0.635055,0 1.14984,0.12981 1.14984,0.289908 0,0.160118 -0.514781,0.289888 -1.14984,0.289888 -0.635035,0 -1.14984,-0.12977 -1.14984,-0.289888 0,-0.160098 0.514801,-0.289908 1.14984,-0.289908zm0 0.0219715c0.586953,0 1.06275,0.119954 1.06275,0.267937 0,0.147983 -0.475796,0.267937 -1.06275,0.267937 -0.586933,0 -1.06275,-0.119954 -1.06275,-0.267937 0,-0.147983 0.475816,-0.267937 1.06275,-0.267937z"/>
  <circle class="fil1" cx="1.39489" cy="1.27626" r="0.243362"/>
  <circle class="fil2 str0" cx="1.35724" cy="1.35724" r="1.32601"/>
 </g>
</svg>
