<?xml version="1.0" encoding="UTF-8"?>
<!DOCTYPE svg PUBLIC "-//W3C//DTD SVG 1.1//EN" "http://www.w3.org/Graphics/SVG/1.1/DTD/svg11.dtd">
<!-- Creator: CorelDRAW -->
<svg xmlns="http://www.w3.org/2000/svg" xml:space="preserve" width="13.5776mm" height="13.5776mm" style="shape-rendering:geometricPrecision; text-rendering:geometricPrecision; image-rendering:optimizeQuality; fill-rule:evenodd; clip-rule:evenodd"
viewBox="0 0 2.71447 2.71447"
 xmlns:xlink="http://www.w3.org/1999/xlink">
 <defs>
  <style type="text/css">
   <![CDATA[
    .str0 {stroke:black;stroke-width:0.0624359}
    .fil1 {fill:none}
    .fil0 {fill:black}
   ]]>
  </style>
 </defs>
 <g id="Layer_x0020_1">
  <metadata id="CorelCorpID_0Corel-Layer"/>
  <path class="fil0" d="M1.16439 1.45208c-0.385131,-0.504945 -0.594131,-0.992977 -0.46682,-1.09008 0.127291,-0.0970825 0.542691,0.23353 0.927822,0.738455 0.385111,0.504925 0.594111,0.992977 0.46682,1.09006 -0.127311,0.0971025 -0.542711,-0.23351 -0.927822,-0.738435zm0.0174533 -0.0133149c-0.355943,-0.4667 -0.549128,-0.917766 -0.431473,-1.00751 0.117675,-0.0897454 0.501606,0.215837 0.857569,0.682517 0.355943,0.46668 0.549108,0.917766 0.431453,1.00751 -0.117655,0.0897454 -0.501606,-0.215837 -0.857549,-0.682517z"/>
  <path class="fil0" d="M1.62539 1.45208c0.385111,-0.504945 0.594111,-0.992977 0.46682,-1.09008 -0.127311,-0.0970825 -0.542711,0.23353 -0.927822,0.738455 -0.385131,0.504925 -0.594131,0.992977 -0.46682,1.09006 0.127291,0.0971025 0.542691,-0.23351 0.927822,-0.738435zm-0.0174533 -0.0133149c0.355943,-0.4667 0.549108,-0.917766 0.431453,-1.00751 -0.117655,-0.0897454 -0.501606,0.215837 -0.857549,0.682517 -0.355943,0.46668 -0.549128,0.917766 -0.431473,1.00751 0.117675,0.0897454 0.501606,-0.215837 0.857569,-0.682517z"/>
  <path class="fil0" d="M2.49988 1.23484c0.0194325,0 0.0352064,0.0157539 0.0352064,0.0352064 0,0.0194525 -0.0157739,0.0352064 -0.0352064,0.0352064 -0.0194525,0 -0.0352064,-0.0157539 -0.0352064,-0.0352064 0,-0.0194525 0.0157539,-0.0352064 0.0352064,-0.0352064zm-1.10499 -0.248484c0.635055,0 1.14984,0.12981 1.14984,0.289908 0,0.160118 -0.514781,0.289888 -1.14984,0.289888 -0.635035,0 -1.14984,-0.12977 -1.14984,-0.289888 0,-0.160098 0.514801,-0.289908 1.14984,-0.289908zm0 0.0219715c0.586953,0 1.06275,0.119954 1.06275,0.267937 0,0.147983 -0.475796,0.267937 -1.06275,0.267937 -0.586933,0 -1.06275,-0.119954 -1.06275,-0.267937 0,-0.147983 0.475816,-0.267937 1.06275,-0.267937z"/>
  <circle class="fil0" cx="1.39489" cy="1.27626" r="0.243362"/>
  <circle class="fil1 str0" cx="1.35724" cy="1.35724" r="1.32601"/>
 </g>
</svg>
