<?xml version="1.0" encoding="UTF-8"?>
<!DOCTYPE svg PUBLIC "-//W3C//DTD SVG 1.1//EN" "http://www.w3.org/Graphics/SVG/1.1/DTD/svg11.dtd">
<!-- Creator: CorelDRAW -->
<svg xmlns="http://www.w3.org/2000/svg" xml:space="preserve" width="17.4603mm" height="17.6134mm" style="shape-rendering:geometricPrecision; text-rendering:geometricPrecision; image-rendering:optimizeQuality; fill-rule:evenodd; clip-rule:evenodd"
viewBox="0 0 3.22028 3.24852"
 xmlns:xlink="http://www.w3.org/1999/xlink">
 <defs>
  <style type="text/css">
   <![CDATA[
    .fil1 {fill:black}
    .fil0 {fill:white}
   ]]>
  </style>
 </defs>
 <g id="Layer_x0020_1">
  <metadata id="CorelCorpID_0Corel-Layer"/>
  <g id="_801322264">
   <path id="_778916744" class="fil0" d="M0.256216 1.00666c0.0324974,-0.00667653 0.118462,-0.0741611 0.292993,-0.112081 0.144578,-0.0314276 0.220989,-0.0298968 0.366121,-0.0354667 0.0708228,-0.12975 0.14764,-0.266213 0.240724,-0.369699 0.0497789,-0.0553488 0.089045,-0.094246 0.158909,-0.146902l0.22702 -0.0741795c-0.00368869,0.023792 -0.105017,0.0799339 -0.155386,0.119938 -0.120104,0.0953711 -0.235375,0.247935 -0.315401,0.386187 -0.0251753,0.0434712 -0.0275176,0.0504797 -0.0478607,0.096865 0.315383,0.0903913 0.30476,0.0756919 0.586778,0.254815 -0.00145703,0.00108816 -0.00381779,0.000645521 -0.00461086,0.00289562 -0.00234232,0.00667653 -0.051697,0.0192734 -0.0727225,0.0247695 -0.0158614,-0.0178717 -0.476542,-0.202657 -0.561234,-0.186242 -0.0764112,0.195999 -0.136555,0.410145 -0.143638,0.661825 -0.00341204,0.121266 -0.00470308,0.277887 0.0189045,0.384288l0.0839546 0.316453c0.00579124,0.00813356 0.0468648,0.0112321 0.0547401,0.0126891 0.201532,0.0372558 0.523001,0.00473997 0.710534,-0.0583182 0.0598674,-0.0201402 0.054943,-0.0120251 0.125342,0.0519921 -0.0834197,0.0741427 -0.512617,0.110771 -0.633754,0.115567 -0.0733127,0.00289562 -0.137717,-0.00499817 -0.213225,-0.0102546 0.0147916,0.0684067 0.116083,0.22086 0.156917,0.276098 0.0583182,0.0789011 0.136205,0.157987 0.203726,0.230432 -0.0276836,-0.00370713 -0.139912,-0.0556439 -0.160642,-0.0698084 -0.0494284,-0.0337884 -0.0913504,-0.0742718 -0.121911,-0.114349 -0.0761899,-0.0998897 -0.114073,-0.17536 -0.174032,-0.296663 -0.0352085,-0.0712286 -0.00363336,-0.0322023 -0.152952,-0.075987 -0.248968,-0.0729992 -0.269367,-0.0906864 -0.492643,-0.21387 0.00226854,0.0599228 0.137459,0.28473 0.171893,0.330543 0.159296,0.211971 0.322428,0.346866 0.557545,0.455535 0.0464775,0.0214866 0.130119,0.0487645 0.191074,0.0630581 0.0863707,0.0202325 0.13615,0.023331 0.231742,0.0226301 0.439175,-0.00326449 0.696978,-0.370123 0.771563,-0.749837 0.0181484,-0.0924017 -0.0331982,-0.0556992 -0.0986909,-0.145058 -0.0509039,-0.0694765 -0.0283291,-0.130912 -0.0161933,-0.212985l-0.319072 -0.358301c-0.0328109,0.00208411 -0.159831,0.0586502 -0.244726,-0.072243 -0.114921,-0.177205 0.134914,-0.400887 0.293638,-0.255313 0.0276836,0.0253782 0.0512359,0.057728 0.0598305,0.114276l-0.0305608 0.1384 0.316785 0.356844c0.0236445,0.0117854 0.129418,-0.0542606 0.219938,0.0347659 0.0434712,0.0427704 0.0871084,0.130487 0.0529327,0.213317 -0.0489489,0.118647 -0.114663,0.0867395 -0.129178,0.15179 -0.0084471,0.0378644 -0.0160827,0.0794728 -0.02429,0.115198 -0.00970125,0.0421248 -0.0194763,0.0723536 -0.0318334,0.113667 -0.0684805,0.228994 -0.229529,0.435302 -0.430341,0.557435l-0.0930287 0.0581153c0.174752,-0.00416822 0.380396,-0.120602 0.511179,-0.219717 0.190521,-0.144412 0.293859,-0.30297 0.393048,-0.512045 0.0665993,-0.140373 0.131649,-0.459057 0.109665,-0.613779 -0.0132424,-0.0931947 -0.143564,-0.0649209 -0.151107,-0.216969 -0.00374402,-0.0754521 0.00741427,-0.087385 0.0331429,-0.153283 -0.0221321,-0.0460164 -0.241111,-0.320953 -0.275398,-0.363945 -0.031649,0.00184434 -0.153671,0.0677059 -0.256622,-0.0673555 -0.0536704,-0.0703986 -0.0549615,-0.197788 0.0341019,-0.275637 0.140299,-0.122649 0.318666,-0.000516416 0.330414,0.120749 0.00601256,0.0621544 -0.0130395,0.0933423 -0.0349872,0.146644 0.0536889,0.0586133 0.0969941,0.121727 0.14871,0.18591l0.147861 0.197234c0.110089,-0.0124309 0.169606,-0.000184434 0.225674,0.0727225 0.0657693,0.0855223 0.0337146,0.214848 -0.0510515,0.272963 -0.0268721,0.018425 -0.0296571,0.00769092 -0.0408338,0.0410736 -0.0133346,0.0398378 -0.00868686,0.0969941 -0.0104759,0.147787 -0.00308006,0.0876248 -0.0208964,0.198913 -0.0372189,0.284177 -0.0309665,0.161546 -0.10391,0.326929 -0.183918,0.452233 -0.138658,0.217172 -0.158743,0.201458 -0.286519,0.355663 0.0672632,-0.0120067 0.237976,-0.139045 0.284545,-0.179418 0.265862,-0.230377 0.431282,-0.503525 0.50216,-0.874016 0.201716,-1.05439 -0.730619,-1.97627 -1.80838,-1.73293 -0.266286,0.0601256 -0.43023,0.157581 -0.61129,0.307065 -0.0849136,0.0700851 -0.158927,0.155663 -0.22383,0.234933 -0.0345077,0.0421433 -0.165069,0.231059 -0.174549,0.287109z"/>
   <path id="_778916384" class="fil1" d="M2.17421 1.96065c0.105552,-0.0569165 0.17951,0.120897 0.0717081,0.173368 -0.0905758,0.0441167 -0.18377,-0.112948 -0.0717081,-0.173368zm0.534491 -0.524532c0.0524347,-0.0203431 0.104574,0.0137957 0.115677,0.0611954 0.0137219,0.0584842 -0.0249909,0.103929 -0.0596645,0.116397 -0.102601,0.0369053 -0.175803,-0.131133 -0.0560127,-0.177592zm-1.10426 -0.112505c0.0674661,-0.0541131 0.202214,0.0969203 0.0723721,0.158171 -0.0835304,0.0393952 -0.191332,-0.062763 -0.0723721,-0.158171zm-0.789638 0.989694c-0.162321,-0.0157691 -0.584159,-0.187238 -0.660773,-0.3948 -0.0204722,-0.0554963 -0.0315567,-0.240576 -0.0322023,-0.31459 -0.000885285,-0.100646 0.0179455,-0.220528 0.0402436,-0.312985 0.0163962,-0.0679825 0.00938771,-0.0790671 0.0541131,-0.123368 0.146589,-0.145242 0.431724,-0.234047 0.650961,-0.211528 -0.0664333,0.206862 -0.134932,0.421857 -0.136555,0.647771 -0.000977503,0.137625 -0.00142015,0.252067 0.013224,0.380138 0.0144043,0.125932 0.0656402,0.268998 0.0709888,0.329363zm1.37169 -1.56585c0.116101,-0.0400038 0.153689,0.144265 0.0543528,0.183107 -0.106954,0.0418482 -0.176448,-0.141055 -0.0543528,-0.183107zm-1.93027 0.259204c0.00947993,-0.0560496 0.140041,-0.244966 0.174549,-0.287109 0.0649025,-0.0792699 0.138916,-0.164848 0.22383,-0.234933 0.181059,-0.149484 0.345003,-0.246939 0.61129,-0.307065 1.07776,-0.243343 2.0101,0.678534 1.80838,1.73293 -0.0708782,0.370492 -0.236297,0.643639 -0.50216,0.874016 -0.0465697,0.0403727 -0.217282,0.167411 -0.284545,0.179418 0.127776,-0.154206 0.147861,-0.138492 0.286519,-0.355663 0.0800077,-0.125305 0.152952,-0.290687 0.183918,-0.452233 0.0163225,-0.0852641 0.0341388,-0.196552 0.0372189,-0.284177 0.00178901,-0.0507933 -0.00285873,-0.107949 0.0104759,-0.147787 0.0111767,-0.0333826 0.0139617,-0.0226486 0.0408338,-0.0410736 0.0847661,-0.0581153 0.116821,-0.187441 0.0510515,-0.272963 -0.0560681,-0.0729069 -0.115585,-0.0851534 -0.225674,-0.0727225l-0.147861 -0.197234c-0.0517154,-0.0641832 -0.0950206,-0.127297 -0.14871,-0.18591 0.0219477,-0.0533016 0.0409998,-0.0844894 0.0349872,-0.146644 -0.0117485,-0.121266 -0.190115,-0.243398 -0.330414,-0.120749 -0.0890634,0.0778498 -0.0877724,0.205239 -0.0341019,0.275637 0.102951,0.135061 0.224973,0.0691998 0.256622,0.0673555 0.0342864,0.0429917 0.253265,0.317928 0.275398,0.363945 -0.0257286,0.0658984 -0.0368869,0.0778313 -0.0331429,0.153283 0.00754337,0.152048 0.137865,0.123774 0.151107,0.216969 0.0219846,0.154722 -0.0430654,0.473406 -0.109665,0.613779 -0.0991889,0.209075 -0.202527,0.367633 -0.393048,0.512045 -0.130782,0.0991151 -0.336427,0.215549 -0.511179,0.219717l0.0930287 -0.0581153c0.200812,-0.122133 0.36186,-0.328441 0.430341,-0.557435 0.0123571,-0.0413133 0.0221321,-0.0715421 0.0318334,-0.113667 0.00820733,-0.035725 0.0158429,-0.0773334 0.02429,-0.115198 0.014515,-0.06505 0.080229,-0.0331429 0.129178,-0.15179 0.0341757,-0.0828295 -0.00946149,-0.170547 -0.0529327,-0.213317 -0.0905204,-0.0890265 -0.196294,-0.0229805 -0.219938,-0.0347659l-0.316785 -0.356844c0.0220952,-0.0626339 0.0713208,-0.137736 -0.0292697,-0.252675 -0.158724,-0.145574 -0.408559,0.078108 -0.293638,0.255313 0.0848952,0.130893 0.211915,0.0743271 0.244726,0.072243l0.319072 0.358301c-0.0121358,0.0820733 -0.0347106,0.143508 0.0161933,0.212985 0.0654927,0.0893585 0.116839,0.052656 0.0986909,0.145058 -0.0745853,0.379714 -0.332388,0.746572 -0.771563,0.749837 -0.0955924,0.000700851 -0.145371,-0.00239765 -0.231742,-0.0226301 -0.0609556,-0.0142937 -0.144597,-0.0415715 -0.191074,-0.0630581 -0.235117,-0.108669 -0.398249,-0.243564 -0.557545,-0.455535 -0.0344339,-0.0458135 -0.169624,-0.270621 -0.171893,-0.330543 0.223276,0.123184 0.243675,0.140871 0.492643,0.21387 0.149318,0.0437847 0.117743,0.00475841 0.152952,0.075987 0.0599596,0.121303 0.0978425,0.196773 0.174032,0.296663 0.0305608,0.0400776 0.0724827,0.080561 0.121911,0.114349 0.0207304,0.0141646 0.132959,0.0661013 0.160642,0.0698084 -0.0675215,-0.0724459 -0.145408,-0.151531 -0.203726,-0.230432 -0.0408338,-0.0552381 -0.142125,-0.207692 -0.156917,-0.276098 0.0755075,0.00525638 0.139912,0.0131502 0.213225,0.0102546 0.121137,-0.0047953 0.550334,-0.041424 0.633754,-0.115567 -0.0703986,-0.0640172 -0.0654742,-0.0721323 -0.125342,-0.0519921 -0.187533,0.0630581 -0.509002,0.0955739 -0.710534,0.0583182 -0.00787535,-0.00145703 -0.0489489,-0.00455553 -0.0547401,-0.0126891l-0.0839546 -0.316453c-0.0236076,-0.1064 -0.0223166,-0.263022 -0.0189045,-0.384288 0.00708228,-0.251679 0.0672264,-0.465826 0.143638,-0.661825 0.0889343,-0.0266508 0.548453,0.160366 0.561234,0.186242 0.0210255,-0.00549615 0.0703802,-0.018093 0.0727225,-0.0247695 0.000793068,-0.0022501 0.00315383,-0.00180746 0.00461086,-0.00289562l-0.298009 -0.167596c-0.14076,-0.0539102 -0.221469,-0.0679272 -0.288769,-0.0872191 0.0203431,-0.0463853 0.0226854,-0.0533938 0.0478607,-0.096865 0.0800261,-0.138252 0.195298,-0.290816 0.315401,-0.386187 0.0503691,-0.0400038 0.151697,-0.0961457 0.155386,-0.119938l-0.22702 0.0741795c-0.0698638,0.052656 -0.10913,0.0915533 -0.158909,0.146902 -0.0930841,0.103486 -0.169901,0.239949 -0.240724,0.369699 -0.145131,0.00556992 -0.221543,0.00403911 -0.366121,0.0354667 -0.17453,0.0379197 -0.260495,0.105404 -0.292993,0.112081zm-0.251144 0.705554c0.0080229,0.0538549 0.0114534,0.127075 0.0178164,0.184342 0.0170602,0.153966 0.0807639,0.321432 0.145556,0.458246 0.170049,0.359075 0.480489,0.617265 0.842515,0.776506 0.201384,0.0885839 0.4249,0.121542 0.686299,0.116747 0.22608,-0.00413133 0.480194,-0.0905573 0.640615,-0.168204 0.189119,-0.0915533 0.342937,-0.218684 0.461787,-0.348028 0.192033,-0.208983 0.351403,-0.536243 0.392882,-0.816418 0.0284029,-0.191923 0.0297124,-0.161952 0.0265032,-0.375453 -0.00614167,-0.408485 -0.238474,-0.842054 -0.51566,-1.10144 -0.117245,-0.109702 -0.337626,-0.256161 -0.496368,-0.312948 -0.0499817,-0.0178717 -0.0926783,-0.0353745 -0.149798,-0.0542791 -0.141719,-0.0469017 -0.377482,-0.0812065 -0.532149,-0.0686834 -0.241167,0.0195316 -0.307212,0.0427704 -0.501053,0.113243 -0.219256,0.079731 -0.449854,0.258872 -0.591998,0.413797 -0.122243,0.133235 -0.248839,0.318943 -0.31376,0.495428 -0.0610294,0.165899 -0.0524532,0.149964 -0.0881412,0.314701 -0.0184619,0.0852087 -0.0401145,0.271248 -0.0250462,0.372447z"/>
   <path id="_778916648" class="fil0" d="M0.814795 2.31331c-0.0053486,-0.0603654 -0.0565845,-0.203431 -0.0709888,-0.329363 -0.0146441,-0.128071 -0.0142015,-0.242513 -0.013224,-0.380138 0.00162302,-0.225914 0.070122,-0.440909 0.136555,-0.647771 -0.219237,-0.0225194 -0.504373,0.0662857 -0.650961,0.211528 -0.0447254,0.0443012 -0.0377168,0.0553857 -0.0541131,0.123368 -0.0222981,0.092457 -0.0411289,0.212339 -0.0402436,0.312985 0.000645521,0.0740136 0.01173,0.259094 0.0322023,0.31459 0.0766141,0.207563 0.498453,0.379031 0.660773,0.3948z"/>
   <path id="_778917224" class="fil0" d="M2.18649 0.747458c-0.122096,0.0420511 -0.0526007,0.224955 0.0543528,0.183107 0.0993364,-0.0388419 0.0617487,-0.22311 -0.0543528,-0.183107z"/>
   <path id="_778917296" class="fil0" d="M2.7087 1.43612c-0.11979,0.046459 -0.0465881,0.214497 0.0560127,0.177592 0.0346737,-0.0124678 0.0733865,-0.0579124 0.0596645,-0.116397 -0.011103,-0.0473997 -0.0632426,-0.0815385 -0.115677,-0.0611954z"/>
   <path id="_778917536" class="fil0" d="M2.17421 1.96065c-0.112062,0.0604207 -0.0188676,0.217485 0.0717081,0.173368 0.107802,-0.0524716 0.0338437,-0.230285 -0.0717081,-0.173368z"/>
   <path id="_778918328" class="fil0" d="M1.59873 1.32835c-0.116231,0.0755628 -0.00545926,0.192826 0.0780711,0.153431 0.133125,-0.0842681 -0.00173368,-0.216508 -0.0780711,-0.153431z"/>
  </g>
 </g>
</svg>
