<?xml version="1.0" encoding="UTF-8"?>
<!DOCTYPE svg PUBLIC "-//W3C//DTD SVG 1.1//EN" "http://www.w3.org/Graphics/SVG/1.1/DTD/svg11.dtd">
<!-- Creator: CorelDRAW -->
<svg xmlns="http://www.w3.org/2000/svg" xml:space="preserve" width="17.4602mm" height="23.7081mm" style="shape-rendering:geometricPrecision; text-rendering:geometricPrecision; image-rendering:optimizeQuality; fill-rule:evenodd; clip-rule:evenodd"
viewBox="0 0 1.92532 2.61428"
 xmlns:xlink="http://www.w3.org/1999/xlink">
 <defs>
  <style type="text/css">
   <![CDATA[
    .fil0 {fill:#11110F}
    .fil1 {fill:white}
    .fil2 {fill:black;fill-rule:nonzero}
   ]]>
  </style>
 </defs>
 <g id="Layer_x0020_1">
  <metadata id="CorelCorpID_0Corel-Layer"/>
  <g id="_776146360">
   <path id="_801311368" class="fil0" d="M0.153175 0.601861c0.0194295,-0.00399175 0.070826,-0.0443393 0.175174,-0.0670107 0.0864401,-0.0187899 0.132125,-0.0178747 0.218896,-0.0212048 0.0423434,-0.0775745 0.0882706,-0.159163 0.143924,-0.221035 0.0297617,-0.0330918 0.053238,-0.0563476 0.0950081,-0.0878295l0.135731 -0.0443503c-0.00220539,0.0142247 -0.0627874,0.0477907 -0.0929019,0.0717081 -0.0718074,0.0570203 -0.140726,0.148235 -0.188572,0.230893 -0.0150518,0.0259905 -0.0164522,0.0301807 -0.0286149,0.0579135 0.188561,0.054043 0.182209,0.0452545 0.350822,0.152348 -0.000871128,0.000650589 -0.00228258,0.000385943 -0.00275673,0.00173123 -0.00140042,0.00399175 -0.0309085,0.0115231 -0.0434792,0.0148092 -0.00948316,-0.0106851 -0.284914,-0.121164 -0.33555,-0.11135 -0.0456846,0.117183 -0.0816434,0.245217 -0.0858778,0.39569 -0.00203998,0.0725021 -0.00281187,0.166143 0.0113026,0.229757l0.0501946 0.1892c0.00346246,0.00486288 0.0280194,0.0067154 0.0327279,0.00758653 0.120491,0.0222744 0.312691,0.00283392 0.424813,-0.0348672 0.0357934,-0.0120414 0.0328492,-0.00718956 0.074939,0.0310849 -0.0498748,0.0443283 -0.306483,0.0662278 -0.378907,0.0690948 -0.0438321,0.00173123 -0.0823381,-0.0029883 -0.127482,-0.00613097 0.0088436,0.0408989 0.0694035,0.132048 0.0938171,0.165073 0.0348672,0.0471732 0.0814339,0.0944567 0.121804,0.137771 -0.0165514,-0.00221641 -0.0836503,-0.0332683 -0.0960446,-0.0417369 -0.0295522,-0.0202013 -0.0546164,-0.0444055 -0.072888,-0.068367 -0.0455523,-0.0597219 -0.0682016,-0.104844 -0.10405,-0.177368 -0.0210504,-0.042586 -0.00217231,-0.019253 -0.0914464,-0.045431 -0.148853,-0.0436446 -0.161048,-0.0542194 -0.29454,-0.127868 0.00135631,0.0358265 0.0821837,0.170234 0.102771,0.197625 0.0952396,0.126733 0.192773,0.207384 0.333344,0.272354 0.0277879,0.0128464 0.077795,0.0291552 0.114239,0.0377011 0.0516391,0.0120965 0.0814008,0.0139491 0.138553,0.01353 0.262573,-0.00195177 0.416708,-0.221288 0.461301,-0.448311 0.0108505,-0.0552449 -0.0198485,-0.0333013 -0.0590051,-0.0867268 -0.0304343,-0.0415385 -0.0169374,-0.0782692 -0.00968165,-0.127339l-0.190766 -0.21422c-0.0196169,0.00124604 -0.0955594,0.0350656 -0.146316,-0.0431925 -0.0687088,-0.105947 0.080662,-0.239681 0.17556,-0.152646 0.0165514,0.0151731 0.0306328,0.0345143 0.0357714,0.0683229l-0.0182716 0.0827461 0.189399 0.213349c0.0141365,0.00704621 0.077376,-0.0324412 0.131496,0.0207858 0.0259905,0.0255715 0.0520802,0.0780156 0.0316473,0.127538 -0.0292655,0.0709363 -0.0685544,0.0518597 -0.0772326,0.0907517 -0.00505034,0.0226383 -0.00961549,0.0475151 -0.0145225,0.0688742 -0.00580017,0.0251855 -0.0116444,0.0432587 -0.0190325,0.067959 -0.040943,0.13691 -0.13723,0.260258 -0.257291,0.333278l-0.0556198 0.0347459c0.10448,-0.00249209 0.22743,-0.0721051 0.305622,-0.131364 0.113908,-0.0863409 0.175692,-0.181139 0.234995,-0.306141 0.0398183,-0.083926 0.0787102,-0.27446 0.0655661,-0.366965 -0.00791734,-0.0557191 -0.0858336,-0.0388148 -0.0903437,-0.129721 -0.00223847,-0.0451112 0.00443283,-0.0522456 0.0198154,-0.0916448 -0.0132323,-0.0275122 -0.144155,-0.191891 -0.164654,-0.217594 -0.0189222,0.00110269 -0.0918764,0.0404799 -0.153429,-0.0402704 -0.0320884,-0.0420898 -0.0328603,-0.118253 0.0203888,-0.164798 0.0838819,-0.0733291 0.190523,-0.000308754 0.197548,0.0721933 0.00359478,0.0371608 -0.00779604,0.0558073 -0.0209181,0.0876751 0.0320994,0.0350436 0.0579906,0.0727778 0.0889102,0.111151l0.0884029 0.117922c0.0658198,-0.00743215 0.101404,-0.000110269 0.134926,0.0434792 0.039322,0.0511319 0.0201572,0.128453 -0.0305226,0.163199 -0.0160662,0.0110159 -0.0177313,0.00459823 -0.0244136,0.024557 -0.00797247,0.0238182 -0.00519369,0.0579906 -0.0062633,0.0883588 -0.0018415,0.052389 -0.0124935,0.118925 -0.0222524,0.169903 -0.0185142,0.0965849 -0.0621257,0.195463 -0.109961,0.27038 -0.0829005,0.129842 -0.0949088,0.120447 -0.171303,0.212643 0.0402152,-0.00717853 0.142281,-0.083132 0.170124,-0.10727 0.158953,-0.137737 0.257854,-0.301046 0.30023,-0.522555 0.120602,-0.630399 -0.436821,-1.18157 -1.08119,-1.03608 -0.159207,0.0359478 -0.257225,0.0942141 -0.365477,0.183587 -0.050768,0.0419023 -0.0950191,0.0930673 -0.133823,0.140461 -0.0206314,0.0251965 -0.098691,0.138145 -0.104359,0.171656z"/>
   <path id="_778964648" class="fil1" d="M1.2999 1.17223c0.0631071,-0.0340291 0.107325,0.0722815 0.0428727,0.103653 -0.0541533,0.0263764 -0.109872,-0.0675289 -0.0428727,-0.103653zm0.319561 -0.313606c0.0313496,-0.0121627 0.0625227,0.00824815 0.0691609,0.0365874 0.00820404,0.0349664 -0.0149415,0.0621368 -0.0356721,0.069591 -0.0613428,0.0220649 -0.105109,-0.0784015 -0.0334888,-0.106178zm-0.660216 -0.0672643c0.0403365,-0.032353 0.120899,0.0579465 0.0432697,0.094567 -0.049941,0.0235535 -0.114393,-0.0375247 -0.0432697,-0.094567zm-0.472107 0.591716c-0.097048,-0.00942803 -0.349256,-0.111945 -0.395062,-0.236043 -0.0122399,-0.03318 -0.0188671,-0.143835 -0.019253,-0.188086 -0.000529293,-0.060174 0.0107292,-0.131849 0.0240608,-0.187127 0.00980294,-0.0406453 0.00561271,-0.0472725 0.032353,-0.0737592 0.0876421,-0.0868371 0.258118,-0.139932 0.389196,-0.126468 -0.039719,0.123678 -0.080673,0.252219 -0.0816434,0.387288 -0.000584427,0.082283 -0.000849074,0.150705 0.00790631,0.227276 0.00861203,0.0752919 0.0392449,0.160828 0.0424427,0.196919zm0.820106 -0.936187c0.0694145,-0.0239174 0.0918874,0.0862527 0.0324964,0.109475 -0.0639452,0.0250201 -0.105495,-0.084334 -0.0324964,-0.109475zm-1.15407 0.154973c0.00566784,-0.0335108 0.0837275,-0.14646 0.104359,-0.171656 0.0388038,-0.0473938 0.0830549,-0.0985587 0.133823,-0.140461 0.108251,-0.0893733 0.20627,-0.14764 0.365477,-0.183587 0.64437,-0.145489 1.20179,0.405681 1.08119,1.03608 -0.0423765,0.221509 -0.141277,0.384818 -0.30023,0.522555 -0.027843,0.024138 -0.129908,0.100091 -0.170124,0.10727 0.0763946,-0.0921962 0.0884029,-0.0828012 0.171303,-0.212643 0.0478348,-0.074917 0.0914464,-0.173795 0.109961,-0.27038 0.00975884,-0.0509775 0.0204109,-0.117514 0.0222524,-0.169903 0.00106961,-0.0303682 -0.00170917,-0.0645406 0.0062633,-0.0883588 0.00668232,-0.0199587 0.00834739,-0.0135411 0.0244136,-0.024557 0.0506798,-0.0347459 0.0698446,-0.112067 0.0305226,-0.163199 -0.0335219,-0.0435895 -0.0691058,-0.0509113 -0.134926,-0.0434792l-0.0884029 -0.117922c-0.0309195,-0.0383737 -0.0568108,-0.0761079 -0.0889102,-0.111151 0.0131221,-0.0318678 0.0245129,-0.0505144 0.0209181,-0.0876751 -0.00702416,-0.0725021 -0.113666,-0.145522 -0.197548,-0.0721933 -0.0532491,0.0465447 -0.0524772,0.122708 -0.0203888,0.164798 0.0615523,0.0807502 0.134507,0.0413731 0.153429,0.0402704 0.0204991,0.0257038 0.151422,0.190082 0.164654,0.217594 -0.0153826,0.0393992 -0.0220539,0.0465337 -0.0198154,0.0916448 0.00451002,0.090906 0.0824263,0.0740017 0.0903437,0.129721 0.0131441,0.0925049 -0.0257479,0.283039 -0.0655661,0.366965 -0.0593028,0.125001 -0.121087,0.2198 -0.234995,0.306141 -0.078192,0.0592587 -0.201142,0.128872 -0.305622,0.131364l0.0556198 -0.0347459c0.120061,-0.0730203 0.216348,-0.196368 0.257291,-0.333278 0.00738805,-0.0247003 0.0132323,-0.0427735 0.0190325,-0.067959 0.00490699,-0.0213592 0.00947214,-0.0462359 0.0145225,-0.0688742 0.0086782,-0.038892 0.0479672,-0.0198154 0.0772326,-0.0907517 0.0204329,-0.049522 -0.00565682,-0.101966 -0.0316473,-0.127538 -0.0541202,-0.053227 -0.11736,-0.0137396 -0.131496,-0.0207858l-0.189399 -0.213349c0.0132103,-0.0374475 0.0426411,-0.0823491 -0.0174997,-0.151069 -0.0948978,-0.0870356 -0.244269,0.0466991 -0.17556,0.152646 0.050757,0.0782581 0.126699,0.0444385 0.146316,0.0431925l0.190766 0.21422c-0.00725572,0.0490699 -0.0207527,0.0858006 0.00968165,0.127339 0.0391566,0.0534255 0.0698556,0.0314819 0.0590051,0.0867268 -0.0445929,0.227022 -0.198727,0.446359 -0.461301,0.448311 -0.0571526,0.000419023 -0.0869143,-0.0014335 -0.138553,-0.01353 -0.036444,-0.00854587 -0.0864512,-0.0248547 -0.114239,-0.0377011 -0.140571,-0.0649707 -0.238105,-0.145622 -0.333344,-0.272354 -0.0205873,-0.0273909 -0.101415,-0.161798 -0.102771,-0.197625 0.133492,0.0736489 0.145688,0.0842237 0.29454,0.127868 0.089274,0.0261779 0.0703959,0.00284495 0.0914464,0.045431 0.0358486,0.0725241 0.0584979,0.117646 0.10405,0.177368 0.0182716,0.0239615 0.0433358,0.0481656 0.072888,0.068367 0.0123943,0.00846868 0.0794932,0.0395205 0.0960446,0.0417369 -0.0403696,-0.0433138 -0.0869363,-0.0905973 -0.121804,-0.137771 -0.0244136,-0.0330257 -0.0849735,-0.124174 -0.0938171,-0.165073 0.0451443,0.00314268 0.0836503,0.0078622 0.127482,0.00613097 0.0724249,-0.002867 0.329033,-0.0247665 0.378907,-0.0690948 -0.0420898,-0.0382745 -0.0391456,-0.0431263 -0.074939,-0.0310849 -0.112122,0.0377011 -0.304321,0.0571416 -0.424813,0.0348672 -0.0047085,-0.000871128 -0.0292655,-0.00272365 -0.0327279,-0.00758653l-0.0501946 -0.1892c-0.0141145,-0.0636144 -0.0133426,-0.157255 -0.0113026,-0.229757 0.00423434,-0.150474 0.0401932,-0.278507 0.0858778,-0.39569 0.0531719,-0.0159339 0.327908,0.0958792 0.33555,0.11135 0.0125707,-0.00328603 0.0420788,-0.0108174 0.0434792,-0.0148092 0.000474158,-0.00134529 0.00188561,-0.00108064 0.00275673,-0.00173123l-0.178173 -0.100202c-0.0841576,-0.0322317 -0.132411,-0.0406122 -0.172649,-0.0521464 0.0121627,-0.0277327 0.0135631,-0.031923 0.0286149,-0.0579135 0.0478459,-0.0826579 0.116764,-0.173873 0.188572,-0.230893 0.0301146,-0.0239174 0.0906965,-0.0574834 0.0929019,-0.0717081l-0.135731 0.0443503c-0.04177,0.0314819 -0.0652464,0.0547377 -0.0950081,0.0878295 -0.0556529,0.0618721 -0.10158,0.14346 -0.143924,0.221035 -0.0867709,0.00333013 -0.132456,0.0024149 -0.218896,0.0212048 -0.104348,0.0226714 -0.155744,0.0630189 -0.175174,0.0670107zm-0.150154 0.421835c0.00479672,0.0321986 0.00684773,0.0759756 0.010652,0.110214 0.0101999,0.0920528 0.0482869,0.192177 0.0870246,0.273975 0.101668,0.214683 0.287274,0.369049 0.503721,0.464256 0.120403,0.0529624 0.254038,0.0726675 0.410323,0.0698005 0.135168,-0.00247003 0.287097,-0.0541422 0.383009,-0.100566 0.11307,-0.0547377 0.205035,-0.130746 0.276092,-0.208078 0.114812,-0.124946 0.210096,-0.320608 0.234896,-0.488118 0.0169815,-0.114746 0.0177644,-0.0968275 0.0158457,-0.224475 -0.00367197,-0.244225 -0.142578,-0.503446 -0.308302,-0.658528 -0.0700982,-0.0655882 -0.201859,-0.153153 -0.296768,-0.187105 -0.029883,-0.0106851 -0.0554103,-0.0211497 -0.0895607,-0.0324523 -0.084731,-0.0280415 -0.225688,-0.0485516 -0.31816,-0.0410643 -0.144188,0.0116775 -0.183676,0.0255715 -0.299569,0.0677054 -0.131088,0.0476694 -0.268958,0.154774 -0.353942,0.2474 -0.0730865,0.0796586 -0.148775,0.190689 -0.18759,0.296205 -0.0364881,0.0991873 -0.0313606,0.08966 -0.0526977,0.188153 -0.011038,0.0509444 -0.0239836,0.162173 -0.0149746,0.222678z"/>
   <path id="_776155792" class="fil0" d="M0.487137 1.38308c-0.00319781,-0.0360912 -0.0338306,-0.121627 -0.0424427,-0.196919 -0.00875538,-0.076571 -0.00849074,-0.144993 -0.00790631,-0.227276 0.00097037,-0.135069 0.0419244,-0.26361 0.0816434,-0.387288 -0.131077,-0.0134639 -0.301554,0.0396308 -0.389196,0.126468 -0.0267403,0.0264867 -0.0225501,0.0331139 -0.032353,0.0737592 -0.0133316,0.055278 -0.0245901,0.126953 -0.0240608,0.187127 0.000385943,0.0442511 0.00701313,0.154906 0.019253,0.188086 0.0458059,0.124097 0.298014,0.226614 0.395062,0.236043z"/>
   <path id="_776156224" class="fil0" d="M1.30724 0.446889c-0.0729983,0.0251414 -0.0314488,0.134496 0.0324964,0.109475 0.0593911,-0.0232227 0.0369182,-0.133393 -0.0324964,-0.109475z"/>
   <path id="_776155984" class="fil0" d="M1.61946 0.858623c-0.0716199,0.0277768 -0.027854,0.128243 0.0334888,0.106178 0.0207306,-0.00745421 0.0438762,-0.0346246 0.0356721,-0.069591 -0.00663821,-0.0283392 -0.0378114,-0.0487501 -0.0691609,-0.0365874z"/>
   <path id="_776155936" class="fil0" d="M1.2999 1.17223c-0.0669996,0.0361242 -0.0112806,0.13003 0.0428727,0.103653 0.0644524,-0.0313716 0.0202344,-0.137682 -0.0428727,-0.103653z"/>
   <path id="_776156416" class="fil0" d="M0.955837 0.794193c-0.0694917,0.0451773 -0.00326397,0.115287 0.046677,0.0917331 0.0795924,-0.0503821 -0.00103653,-0.129445 -0.046677,-0.0917331z"/>
  </g>
  <path class="fil2" d="M0.752687 2.20619l-0.597737 0 0.0804525 -0.129412 0.438651 0c0.0119201,0 0.0240938,0.00414613 0.0365322,0.0125597 0.0123061,0.00829225 0.0215025,0.018018 0.0273358,0.0291552 0.00984705,0.0185252 0.0147651,0.0476694 0.0147651,0.0876972zm-0.0137285 0.0516943c-0.00195177,0.0132103 -0.0070021,0.02824 -0.015162,0.0452104 -0.0114018,0.0237079 -0.0305667,0.0436556 -0.0576488,0.0595895 -0.040546,0.0237079 -0.0944347,0.035628 -0.161677,0.035628l-0.178769 0 -0.0599865 0.213625 -0.177611 0 0.0971583 -0.352884 0.553695 -0.00116885z"/>
  <path id="1" class="fil2" d="M1.29847 2.07678l-0.0371718 0.130195 -0.503942 0 0.0826469 -0.130195 0.458467 0zm-0.0478018 0.181106l-0.0428727 0.141983 -0.249771 0 -0.0580458 0.21207 -0.204164 0 0.0987131 -0.354053 0.45614 0z"/>
  <path id="12" class="fil2" d="M1.83364 2.07678l-0.0383517 0.130195 -0.465337 0c0.00959343,-0.0318678 0.0276004,-0.0607584 0.0538996,-0.0865394 0.0296624,-0.0291442 0.0603614,-0.0436556 0.0922293,-0.0436556l0.357559 0zm-0.110115 0.392526l-0.0405571 0.144971 -0.246397 0c-0.0855028,0 -0.140042,-0.0274681 -0.163485,-0.0823932 -0.0071234,-0.0164522 -0.00946111,-0.0393882 -0.00686978,-0.0686647 0.000518266,-0.00582222 0.00168712,-0.0161875 0.00337424,-0.0310849l0.0452104 -0.173079 0.192762 -0.00116885 -0.0557081 0.17191c0.00168712,0.00686978 0.00337424,0.0137285 0.00492904,0.020466 0.00479672,0.00971473 0.0143791,0.0160662 0.0287582,0.0190435l0.237983 0z"/>
 </g>
</svg>
