<?xml version="1.0" encoding="UTF-8"?>
<!DOCTYPE svg PUBLIC "-//W3C//DTD SVG 1.1//EN" "http://www.w3.org/Graphics/SVG/1.1/DTD/svg11.dtd">
<!-- Creator: CorelDRAW -->
<svg xmlns="http://www.w3.org/2000/svg" xml:space="preserve" width="53.2333mm" height="17.6134mm" style="shape-rendering:geometricPrecision; text-rendering:geometricPrecision; image-rendering:optimizeQuality; fill-rule:evenodd; clip-rule:evenodd"
viewBox="0 0 86.755 28.7048"
 xmlns:xlink="http://www.w3.org/1999/xlink">
 <defs>
  <style type="text/css">
   <![CDATA[
    .fil0 {fill:#11110F}
    .fil1 {fill:white}
    .fil2 {fill:black;fill-rule:nonzero}
   ]]>
  </style>
 </defs>
 <g id="Layer_x0020_1">
  <metadata id="CorelCorpID_0Corel-Layer"/>
  <g id="_776157064">
   <path id="_776158000" class="fil0" d="M2.26384 8.89514c0.287156,-0.0589956 1.04677,-0.655308 2.58896,-0.990377 1.27753,-0.277703 1.95272,-0.264177 3.23515,-0.313394 0.62581,-1.1465 1.30459,-2.35233 2.1271,-3.26676 0.43986,-0.489077 0.786826,-0.832784 1.40416,-1.29807l2.00601 -0.655471c-0.0325943,0.210233 -0.927959,0.706318 -1.37303,1.0598 -1.06127,0.842725 -2.07984,2.19082 -2.78697,3.41246 -0.222456,0.384124 -0.243153,0.446053 -0.422911,0.855926 2.78681,0.798723 2.69294,0.668835 5.18493,2.25161 -0.0128747,0.00961531 -0.0337351,0.005704 -0.0407428,0.0255865 -0.0206974,0.0589956 -0.456809,0.170305 -0.642596,0.218871 -0.140155,-0.157919 -4.21085,-1.79073 -4.95922,-1.64569 -0.67519,1.7319 -1.20664,3.62416 -1.26922,5.84807 -0.0301497,1.07154 -0.0415577,2.45549 0.167046,3.39567l0.741846 2.79626c0.051173,0.0718704 0.41411,0.0992496 0.483699,0.112124 1.78079,0.329202 4.62138,0.0418836 6.27847,-0.515316 0.529005,-0.177965 0.485492,-0.106257 1.10755,0.459416 -0.73712,0.655145 -4.52963,0.978806 -5.60002,1.02118 -0.647811,0.0255865 -1.21691,-0.0441652 -1.88411,-0.0906121 0.130703,0.604461 1.02574,1.95158 1.38656,2.43968 0.515316,0.697192 1.20354,1.39601 1.80018,2.03616 -0.24462,-0.0327572 -1.2363,-0.491685 -1.41948,-0.616847 -0.436763,-0.298564 -0.807197,-0.656286 -1.07724,-1.01042 -0.673235,-0.882653 -1.00798,-1.54953 -1.5378,-2.62139 -0.311112,-0.629395 -0.0321054,-0.284548 -1.35152,-0.671442 -2.19995,-0.645041 -2.3802,-0.80133 -4.35313,-1.88982 0.0200455,0.529494 1.21463,2.51595 1.51889,2.92077 1.40758,1.87303 2.84907,3.065 4.92663,4.02523 0.410688,0.189862 1.14976,0.430896 1.68838,0.557199 0.763195,0.17878 1.20305,0.206159 2.04774,0.199966 3.88067,-0.0288459 6.15869,-3.27051 6.81775,-6.62576 0.160364,-0.816487 -0.293348,-0.492174 -0.87206,-1.28177 -0.449801,-0.613913 -0.250324,-1.15677 -0.143089,-1.88199l-2.81941 -3.16605c-0.289926,0.0184158 -1.41231,0.518249 -2.16247,-0.638359 -1.01547,-1.56583 1.19214,-3.54235 2.59467,-2.25601 0.24462,0.224249 0.452735,0.5101 0.528679,1.00977l-0.270044 1.22294 2.7992 3.15317c0.208929,0.104139 1.14357,-0.479462 1.94343,0.307201 0.384124,0.377931 0.769714,1.15302 0.467728,1.88493 -0.432526,1.04839 -1.01319,0.766454 -1.14145,1.34125 -0.0746409,0.33458 -0.142111,0.702244 -0.214633,1.01792 -0.0857229,0.372227 -0.172098,0.639337 -0.281289,1.00439 -0.605113,2.02345 -2.02818,3.84645 -3.80261,4.92565l-0.822028 0.513523c1.54415,-0.0368315 3.36128,-1.06567 4.51691,-1.94148 1.68349,-1.27607 2.59662,-2.67713 3.47308,-4.52457 0.58849,-1.24038 1.16329,-4.05636 0.969028,-5.42352 -0.117013,-0.823494 -1.26857,-0.573659 -1.33522,-1.9172 -0.0330832,-0.666716 0.0655145,-0.772158 0.29286,-1.35446 -0.195566,-0.406614 -2.13052,-2.83603 -2.43349,-3.21591 -0.279659,0.0162971 -1.35788,0.598268 -2.26758,-0.595172 -0.474247,-0.622062 -0.485655,-1.74771 0.301334,-2.43561 1.23972,-1.08376 2.81582,-0.0045632 2.91963,1.06697 0.0531287,0.549214 -0.115221,0.824798 -0.309157,1.29579 0.47441,0.517923 0.857067,1.07561 1.31404,1.64275l1.30654 1.74282c0.972776,-0.109843 1.49868,-0.00162971 1.99412,0.642596 0.581156,0.755698 0.297912,1.89845 -0.451105,2.41198 -0.237449,0.162808 -0.262058,0.0679591 -0.360819,0.362937 -0.117828,0.352018 -0.0767595,0.857067 -0.0925677,1.30589 -0.0272162,0.774277 -0.184647,1.75765 -0.328876,2.51106 -0.273629,1.42747 -0.918181,2.88883 -1.62515,3.99606 -1.22522,1.91899 -1.40269,1.78014 -2.53176,3.14274 0.594357,-0.106094 2.10282,-1.22864 2.51432,-1.58539 2.34923,-2.03568 3.81092,-4.44928 4.43722,-7.72305 1.78242,-9.31691 -6.45595,-17.4629 -15.9793,-15.3126 -2.35298,0.531287 -3.80163,1.39243 -5.40152,2.71331 -0.75032,0.619291 -1.40432,1.37548 -1.97782,2.07593 -0.304919,0.37239 -1.45859,2.04171 -1.54236,2.53698z"/>
   <path id="_776157448" class="fil1" d="M19.2117 17.3248c0.932685,-0.50293 1.5862,1.06828 0.633633,1.53193 -0.800352,0.389828 -1.62385,-0.998037 -0.633633,-1.53193zm4.72291 -4.63491c0.463328,-0.179757 0.924048,0.121903 1.02216,0.540739 0.121251,0.516782 -0.220826,0.918344 -0.527212,1.02851 -0.90661,0.326106 -1.55344,-1.15873 -0.494944,-1.56925zm-9.75759 -0.994125c0.596149,-0.478158 1.78682,0.856415 0.6395,1.39764 -0.738097,0.348107 -1.69067,-0.554592 -0.6395,-1.39764zm-6.97746 8.74521c-1.43431,-0.139341 -5.16179,-1.65449 -5.83878,-3.48857 -0.180898,-0.490381 -0.278844,-2.1258 -0.284548,-2.7798 -0.00782263,-0.889335 0.158571,-1.94865 0.355604,-2.76562 0.144882,-0.600713 0.0829524,-0.698658 0.478158,-1.09012 1.2953,-1.2834 3.81483,-2.06811 5.75208,-1.86912 -0.587023,1.82789 -1.1923,3.72764 -1.20664,5.72388 -0.00863748,1.21609 -0.0125488,2.22733 0.11685,3.359 0.127281,1.11277 0.580015,2.37694 0.627277,2.91034zm12.1207 -13.8363c1.0259,-0.353485 1.35804,1.27476 0.480277,1.61798 -0.945071,0.369782 -1.55915,-1.24641 -0.480277,-1.61798zm-17.0564 2.2904c0.0837673,-0.49527 1.23744,-2.16459 1.54236,-2.53698 0.573496,-0.700451 1.2275,-1.45664 1.97782,-2.07593 1.59989,-1.32088 3.04854,-2.18202 5.40152,-2.71331 9.5234,-2.15024 17.7618,5.99572 15.9793,15.3126 -0.626299,3.27377 -2.08799,5.68738 -4.43722,7.72305 -0.411503,0.356744 -1.91997,1.47929 -2.51432,1.58539 1.12907,-1.3626 1.30654,-1.22375 2.53176,-3.14274 0.70697,-1.10723 1.35152,-2.56859 1.62515,-3.99606 0.14423,-0.753417 0.30166,-1.73679 0.328876,-2.51106 0.0158082,-0.448823 -0.0252606,-0.953872 0.0925677,-1.30589 0.0987607,-0.294978 0.123369,-0.200129 0.360819,-0.362937 0.749016,-0.513523 1.03226,-1.65628 0.451105,-2.41198 -0.495433,-0.644226 -1.02134,-0.752439 -1.99412,-0.642596l-1.30654 -1.74282c-0.456972,-0.56714 -0.839629,-1.12483 -1.31404,-1.64275 0.193936,-0.470987 0.362285,-0.746572 0.309157,-1.29579 -0.103813,-1.07154 -1.67991,-2.15073 -2.91963,-1.06697 -0.786989,0.687902 -0.775581,1.81355 -0.301334,2.43561 0.909706,1.19344 1.98792,0.611469 2.26758,0.595172 0.302964,0.379886 2.23792,2.8093 2.43349,3.21591 -0.227345,0.582297 -0.325943,0.687739 -0.29286,1.35446 0.0666553,1.34354 1.21821,1.0937 1.33522,1.9172 0.194262,1.36717 -0.380538,4.18315 -0.969028,5.42352 -0.87646,1.84744 -1.78959,3.24851 -3.47308,4.52457 -1.15563,0.875808 -2.97276,1.90465 -4.51691,1.94148l0.822028 -0.513523c1.77443,-1.0792 3.1975,-2.90219 3.80261,-4.92565 0.109191,-0.365056 0.195566,-0.632166 0.281289,-1.00439 0.0725223,-0.315676 0.139992,-0.683339 0.214633,-1.01792 0.128258,-0.5748 0.708926,-0.29286 1.14145,-1.34125 0.301986,-0.731905 -0.0836043,-1.507 -0.467728,-1.88493 -0.799864,-0.786663 -1.7345,-0.203062 -1.94343,-0.307201l-2.7992 -3.15317c0.19524,-0.553451 0.63021,-1.21707 -0.258636,-2.23271 -1.40253,-1.28633 -3.61014,0.690184 -2.59467,2.25601 0.750157,1.15661 1.87254,0.656775 2.16247,0.638359l2.81941 3.16605c-0.107235,0.725223 -0.306712,1.26808 0.143089,1.88199 0.578711,0.789596 1.03242,0.465283 0.87206,1.28177 -0.659056,3.35525 -2.93707,6.59692 -6.81775,6.62576 -0.844681,0.00619291 -1.28454,-0.0211863 -2.04774,-0.199966 -0.53862,-0.126303 -1.2777,-0.367338 -1.68838,-0.557199 -2.07756,-0.960227 -3.51904,-2.1522 -4.92663,-4.02523 -0.304268,-0.404821 -1.49885,-2.39128 -1.51889,-2.92077 1.97293,1.08849 2.15318,1.24478 4.35313,1.88982 1.31942,0.386894 1.04041,0.0420466 1.35152,0.671442 0.52982,1.07186 0.864563,1.73874 1.5378,2.62139 0.270044,0.354137 0.640478,0.711859 1.07724,1.01042 0.18318,0.125162 1.17486,0.584089 1.41948,0.616847 -0.596638,-0.640152 -1.28487,-1.33897 -1.80018,-2.03616 -0.360819,-0.488099 -1.25586,-1.83522 -1.38656,-2.43968 0.667205,0.0464468 1.2363,0.116199 1.88411,0.0906121 1.0704,-0.0423726 4.8629,-0.366034 5.60002,-1.02118 -0.622062,-0.565674 -0.578548,-0.637381 -1.10755,-0.459416 -1.65709,0.557199 -4.49768,0.844518 -6.27847,0.515316 -0.0695888,-0.0128747 -0.432526,-0.0402539 -0.483699,-0.112124l-0.741846 -2.79626c-0.208603,-0.940182 -0.197195,-2.32413 -0.167046,-3.39567 0.062581,-2.22391 0.594031,-4.11617 1.26922,-5.84807 0.785848,-0.235494 4.84628,1.41704 4.95922,1.64569 0.185787,-0.0485655 0.621899,-0.159875 0.642596,-0.218871 0.00700777,-0.0198825 0.0278681,-0.0159712 0.0407428,-0.0255865l-2.63329 -1.48092c-1.2438,-0.476365 -1.95696,-0.600224 -2.55164,-0.770692 0.179757,-0.409873 0.200455,-0.471802 0.422911,-0.855926 0.707133,-1.22163 1.7257,-2.56973 2.78697,-3.41246 0.445075,-0.353485 1.34044,-0.84957 1.37303,-1.0598l-2.00601 0.655471c-0.617336,0.465283 -0.964302,0.80899 -1.40416,1.29807 -0.822517,0.914432 -1.50129,2.12026 -2.1271,3.26676 -1.28242,0.0492174 -1.95761,0.0356907 -3.23515,0.313394 -1.5422,0.335069 -2.30181,0.931381 -2.58896,0.990377zm-2.21918 6.23447c0.0708926,0.475876 0.101205,1.12287 0.15743,1.6289 0.150749,1.36049 0.713652,2.84027 1.28617,4.04919 1.5026,3.17289 4.24573,5.45433 7.4447,6.86142 1.77948,0.782752 3.75453,1.07398 6.06433,1.03161 1.9977,-0.0365056 4.24312,-0.80019 5.66065,-1.4863 1.67111,-0.80899 3.03029,-1.93235 4.08048,-3.07527 1.69686,-1.84663 3.10509,-4.73839 3.47162,-7.21409 0.250976,-1.69588 0.262547,-1.43105 0.23419,-3.31761 -0.0542695,-3.60949 -2.10722,-7.44062 -4.55652,-9.73265 -1.03601,-0.969354 -2.98335,-2.26351 -4.38605,-2.7653 -0.441652,-0.157919 -0.818931,-0.312579 -1.32365,-0.479625 -1.25227,-0.414436 -3.33554,-0.717563 -4.70221,-0.606905 -2.13101,0.172587 -2.71461,0.377931 -4.42744,1.00064 -1.9374,0.704525 -3.97504,2.28747 -5.23106,3.65643 -1.08017,1.17731 -2.19881,2.81826 -2.77247,4.37774 -0.539272,1.46593 -0.463491,1.32512 -0.77884,2.78078 -0.163134,0.752928 -0.354463,2.39682 -0.221315,3.29104z"/>
   <path id="_776157856" class="fil0" d="M7.19959 20.441c-0.0472617,-0.533405 -0.499996,-1.79757 -0.627277,-2.91034 -0.129399,-1.13167 -0.125488,-2.14291 -0.11685,-3.359 0.0143415,-1.99624 0.619617,-3.89599 1.20664,-5.72388 -1.93724,-0.198988 -4.45678,0.585719 -5.75208,1.86912 -0.395206,0.391457 -0.333276,0.489403 -0.478158,1.09012 -0.197032,0.816976 -0.363426,1.87629 -0.355604,2.76562 0.005704,0.654004 0.10365,2.28942 0.284548,2.7798 0.676983,1.83408 4.40446,3.34922 5.83878,3.48857z"/>
   <path id="_776158648" class="fil0" d="M19.3203 6.60474c-1.07887,0.371575 -0.464794,1.98776 0.480277,1.61798 0.877764,-0.343218 0.545628,-1.97146 -0.480277,-1.61798z"/>
   <path id="_776158888" class="fil0" d="M23.9346 12.6899c-1.0585,0.410525 -0.411666,1.89536 0.494944,1.56925 0.306386,-0.110169 0.648463,-0.51173 0.527212,-1.02851 -0.0981088,-0.418836 -0.558829,-0.720497 -1.02216,-0.540739z"/>
   <path id="_776158720" class="fil0" d="M19.2117 17.3248c-0.990214,0.533894 -0.16672,1.92176 0.633633,1.53193 0.952568,-0.463654 0.299052,-2.03486 -0.633633,-1.53193z"/>
   <path id="_776158504" class="fil0" d="M14.1267 11.7377c-1.02705,0.667694 -0.0482395,1.70387 0.689858,1.35576 1.17633,-0.744616 -0.0153193,-1.91312 -0.689858,-1.35576z"/>
  </g>
  <path class="fil2" d="M52.5024 9.01346l-18.9409 0 2.5492 -4.10085 13.8998 0c0.377768,0 0.763684,0.131355 1.15775,0.398139 0.389991,0.26271 0.681383,0.570563 0.866193,0.923559 0.311927,0.587023 0.467891,1.51074 0.467891,2.77915zm-0.435134 1.63803c-0.0616032,0.418673 -0.221641,0.894876 -0.480277,1.43268 -0.361308,0.751135 -0.968865,1.3833 -1.82675,1.88835 -1.28487,0.751135 -2.99264,1.1289 -5.12317,1.1289l-5.66505 0 -1.90057 6.76918 -5.62822 0 3.07886 -11.1823 17.5452 -0.0368315z"/>
  <path id="1" class="fil2" d="M69.7971 4.91261l-1.17812 4.12546 -15.9689 0 2.61911 -4.12546 14.5279 0zm-1.51482 5.73887l-1.35869 4.49915 -7.91471 0 -1.83897 6.71996 -6.46964 0 3.12807 -11.2191 14.4539 0z"/>
  <path id="12" class="fil2" d="M86.755 4.91261l-1.21511 4.12546 -14.7455 0c0.303779,-1.00977 0.874504,-1.92518 1.70778,-2.74216 0.940019,-0.923559 1.91296,-1.3833 2.92289,-1.3833l11.3299 0zm-3.48922 12.4383l-1.28487 4.59367 -7.80796 0c-2.7094,0 -4.43755,-0.870267 -5.18053,-2.61096 -0.225878,-0.521345 -0.299704,-1.24787 -0.21773,-2.17567 0.0164601,-0.184647 0.0534546,-0.513034 0.106746,-0.985162l1.43268 -5.48448 6.10849 -0.0368315 -1.76531 5.44748c0.0534546,0.217567 0.106746,0.435134 0.156127,0.648463 0.151889,0.308016 0.455505,0.509123 0.911173,0.603483l7.54118 0z"/>
 </g>
</svg>
