<?xml version="1.0" encoding="UTF-8"?>
<!DOCTYPE svg PUBLIC "-//W3C//DTD SVG 1.1//EN" "http://www.w3.org/Graphics/SVG/1.1/DTD/svg11.dtd">
<!-- Creator: CorelDRAW -->
<svg xmlns="http://www.w3.org/2000/svg" xml:space="preserve" width="92.9144mm" height="86.4684mm" style="shape-rendering:geometricPrecision; text-rendering:geometricPrecision; image-rendering:optimizeQuality; fill-rule:evenodd; clip-rule:evenodd"
viewBox="0 0 85.8061 79.8532"
 xmlns:xlink="http://www.w3.org/1999/xlink">
 <defs>
  <style type="text/css">
   <![CDATA[
    .fil2 {fill:black}
    .fil0 {fill:#11110F}
    .fil1 {fill:white}
    .fil3 {fill:black;fill-rule:nonzero}
   ]]>
  </style>
 </defs>
 <g id="Layer_x0020_1">
  <metadata id="CorelCorpID_0Corel-Layer"/>
  <g id="_597685480">
   <path id="_597688384" class="fil0" d="M36.714 15.072c0.486405,-0.0998299 1.77367,-1.11032 4.38688,-1.67818 2.16458,-0.470336 3.30852,-0.447618 5.48159,-0.530733 1.06045,-1.94294 2.21048,-3.98609 3.60413,-5.53543 0.745354,-0.828561 1.33316,-1.41101 2.37939,-2.19949l3.39902 -1.1106c-0.0552251,0.356192 -1.57244,1.19676 -2.32666,1.79574 -1.79814,1.428 -3.52397,3.71218 -4.7223,5.7821 -0.376879,0.651065 -0.412064,0.755881 -0.71654,1.45044 4.72202,1.35338 4.56299,1.13304 8.78549,3.81515 -0.0217945,0.0163459 -0.0571644,0.00960436 -0.0689851,0.043312 -0.0350928,0.0999223 -0.774074,0.2885 -1.0888,0.370784 -0.237523,-0.267537 -7.13502,-3.03424 -8.40317,-2.7885 -1.14393,2.93469 -2.04444,6.14079 -2.15054,9.9093 -0.0510693,1.81559 -0.0703704,4.16053 0.282959,5.75356l1.25697 4.73809c0.086901,0.121809 0.701672,0.168169 0.819603,0.189963 3.01743,0.557792 7.83078,0.0709245 10.6386,-0.873258 0.89616,-0.301337 0.822465,-0.179897 1.87664,0.778599 -1.24912,1.11004 -7.67508,1.65841 -9.48883,1.73026 -1.09776,0.0434043 -2.06207,-0.0748955 -3.19262,-0.15367 0.221454,1.02434 1.73811,3.30685 2.34947,4.13384 0.873258,1.18152 2.03936,2.36563 3.0504,3.45027 -0.414465,-0.0554098 -2.09486,-0.832993 -2.40525,-1.04512 -0.740274,-0.506076 -1.36788,-1.11207 -1.82547,-1.71207 -1.1407,-1.49569 -1.70791,-2.62578 -2.60555,-4.44174 -0.527224,-1.06664 -0.0544863,-0.482434 -2.28999,-1.13784 -3.7276,-1.09296 -4.03309,-1.35772 -7.37624,-3.20204 0.034077,0.897084 2.05829,4.26304 2.57388,4.94901 2.38493,3.1735 4.82739,5.19346 8.34766,6.82039 0.695947,0.321654 1.94811,0.729931 2.8609,0.943998 1.29308,0.303091 2.03852,0.349543 3.46957,0.338923 6.57566,-0.0487606 10.4356,-5.54171 11.5524,-11.2268 0.271785,-1.38349 -0.49721,-0.834009 -1.47759,-2.17197 -0.762254,-1.04023 -0.424162,-1.95994 -0.242695,-3.18892l-4.77706 -5.36468c-0.4913,0.0313989 -2.39324,0.878245 -3.66425,-1.08151 -1.72075,-2.65311 2.02005,-6.00235 4.39649,-3.82272 0.414373,0.380019 0.766963,0.864207 0.895791,1.71087l-0.457685 2.07232 4.74307 5.34289c0.354161,0.17648 1.93768,-0.812584 3.293,0.52039 0.651065,0.640352 1.30425,1.95384 0.792637,3.19391 -0.732886,1.77634 -1.71678,1.29871 -1.93408,2.27254 -0.126519,0.567026 -0.240848,1.18992 -0.363857,1.72481 -0.145081,0.63084 -0.291548,1.08326 -0.476524,1.70191 -1.02536,3.42866 -3.4367,6.51757 -6.44332,8.34619l-1.39282 0.870025c2.61654,-0.062336 5.69548,-1.80553 7.65347,-3.28968 2.85259,-2.162 4.3999,-4.53603 5.88498,-7.66659 0.997099,-2.10169 1.97129,-6.87303 1.64207,-9.18971 -0.198275,-1.39522 -2.14971,-0.971979 -2.26256,-3.24849 -0.0559639,-1.12962 0.111097,-1.30841 0.496287,-2.29498 -0.331443,-0.688928 -3.60995,-4.8055 -4.12332,-5.44927 -0.47403,0.0277972 -2.30098,1.01391 -3.84248,-1.00827 -0.803441,-1.05408 -0.822742,-2.96137 0.510693,-4.12692 2.10068,-1.83637 4.77133,-0.00766502 4.94708,1.80774 0.0901332,0.930792 -0.195227,1.39771 -0.523622,2.19561 0.803626,0.877598 1.4522,1.8227 2.22636,2.78351l2.2139 2.95306c1.64816,-0.1859 2.53934,-0.00267814 3.37879,1.08889 0.984816,1.28052 0.504783,3.21691 -0.764193,4.08684 -0.402552,0.275941 -0.444202,0.115345 -0.611447,0.614956 -0.199567,0.596486 -0.130121,1.45238 -0.156902,2.21288 -0.0460824,1.31183 -0.312788,2.97827 -0.557422,4.25464 -0.46341,2.41891 -1.55554,4.89499 -2.7534,6.77116 -2.07611,3.25154 -2.37699,3.01623 -4.28992,5.32515 1.00716,-0.179712 3.56294,-2.08202 4.26027,-2.68636 3.98064,-3.44935 6.45718,-7.53896 7.51846,-13.0861 3.02039,-15.7869 -10.939,-29.5896 -27.0756,-25.946 -3.98692,0.900224 -6.44157,2.35925 -9.15268,4.59744 -1.27119,1.04937 -2.37929,2.33072 -3.35109,3.5175 -0.516604,0.63084 -2.47146,3.45942 -2.6134,4.2986z"/>
   <path id="_597688672" class="fil1" d="M65.4307 29.3555c1.58066,-0.852202 2.68774,1.81024 1.07393,2.59585 -1.35634,0.6603 -2.75165,-1.6912 -1.07393,-2.59585zm8.00283 -7.85359c0.784879,-0.304384 1.5656,0.206678 1.73202,0.916385 0.205201,0.875659 -0.374385,1.55591 -0.89339,1.74264 -1.53633,0.552712 -2.63233,-1.96335 -0.838627,-2.65902zm-16.5334 -1.68418c1.01003,-0.810275 3.0274,1.45081 1.08335,2.36803 -1.25041,0.589929 -2.8645,-0.939565 -1.08335,-2.36803zm-11.8228 14.818c-2.43055,-0.236138 -8.74624,-2.80346 -9.89332,-5.91111 -0.306693,-0.830869 -0.472553,-3.6021 -0.482342,-4.7102 -0.0132983,-1.50687 0.268645,-3.30187 0.602489,-4.6861 0.245558,-1.01778 0.140833,-1.18392 0.810183,-1.84718 2.19487,-2.17465 6.46401,-3.5043 9.74667,-3.16704 -0.99479,3.09722 -2.02042,6.31625 -2.04453,9.69883 -0.0146836,2.06041 -0.0213328,3.77396 0.197998,5.69151 0.215544,1.88532 0.9826,4.02755 1.06285,4.93128zm20.5373 -23.4445c1.73848,-0.598887 2.30117,2.15996 0.813969,2.74158 -1.60153,0.626407 -2.64184,-2.11204 -0.813969,-2.74158zm-28.9006 3.88081c0.141941,-0.839181 2.0968,-3.66776 2.6134,-4.2986 0.971795,-1.18678 2.0799,-2.46814 3.35109,-3.5175 2.71111,-2.23818 5.16576,-3.69722 9.15268,-4.59744 16.1366,-3.64365 30.096,10.1591 27.0756,25.946 -1.06128,5.54716 -3.53782,9.63677 -7.51846,13.0861 -0.697332,0.604336 -3.25311,2.50664 -4.26027,2.68636 1.91293,-2.30892 2.2138,-2.07362 4.28992,-5.32515 1.19787,-1.87617 2.28999,-4.35225 2.7534,-6.77116 0.244634,-1.27636 0.51134,-2.94281 0.557422,-4.25464 0.0267814,-0.760499 -0.0426655,-1.61639 0.156902,-2.21288 0.167245,-0.499611 0.208895,-0.339015 0.611447,-0.614956 1.26898,-0.869933 1.74901,-2.80632 0.764193,-4.08684 -0.839458,-1.09157 -1.73063,-1.27479 -3.37879,-1.08889l-2.2139 -2.95306c-0.774167,-0.960805 -1.42274,-1.90591 -2.22636,-2.78351 0.328395,-0.7979 0.613755,-1.26482 0.523622,-2.19561 -0.175741,-1.81541 -2.8464,-3.64411 -4.94708,-1.80774 -1.33344,1.16554 -1.31413,3.07284 -0.510693,4.12692 1.5415,2.02218 3.36845,1.03607 3.84248,1.00827 0.513371,0.643769 3.79187,4.76034 4.12332,5.44927 -0.38519,0.986571 -0.552251,1.16536 -0.496287,2.29498 0.112851,2.27651 2.06429,1.85327 2.26256,3.24849 0.329226,2.31668 -0.64497,7.08802 -1.64207,9.18971 -1.48507,3.13056 -3.03239,5.50459 -5.88498,7.66659 -1.958,1.48415 -5.03693,3.22734 -7.65347,3.28968l1.39282 -0.870025c3.00663,-1.82861 5.41797,-4.91752 6.44332,-8.34619 0.184976,-0.61865 0.331443,-1.07107 0.476524,-1.70191 0.12301,-0.534889 0.237338,-1.15779 0.363857,-1.72481 0.217299,-0.973826 1.20119,-0.496194 1.93408,-2.27254 0.511617,-1.24007 -0.141572,-2.55356 -0.792637,-3.19391 -1.35532,-1.33297 -2.93884,-0.34391 -3.293,-0.52039l-4.74307 -5.34289c0.330981,-0.937902 1.06793,-2.06217 -0.438106,-3.78319 -2.37643,-2.17964 -6.11724,1.16961 -4.39649,3.82272 1.27101,1.95975 3.17295,1.1129 3.66425,1.08151l4.77706 5.36468c-0.181467,1.22899 -0.519559,2.1487 0.242695,3.18892 0.980383,1.33796 1.74938,0.788481 1.47759,2.17197 -1.11678,5.68504 -4.97672,11.178 -11.5524,11.2268 -1.43105,0.0106202 -2.1765,-0.0358316 -3.46957,-0.338923 -0.912783,-0.214066 -2.16495,-0.622344 -2.8609,-0.943998 -3.52027,-1.62692 -5.96274,-3.64689 -8.34766,-6.82039 -0.515588,-0.685973 -2.5398,-4.05193 -2.57388,-4.94901 3.34315,1.84431 3.64864,2.10908 7.37624,3.20204 2.23551,0.655405 1.76277,0.0712015 2.28999,1.13784 0.897638,1.81596 1.46485,2.94604 2.60555,4.44174 0.457592,0.599995 1.0852,1.20599 1.82547,1.71207 0.310387,0.212127 1.99078,0.989711 2.40525,1.04512 -1.01104,-1.08465 -2.17714,-2.26875 -3.0504,-3.45027 -0.611354,-0.826991 -2.12801,-3.1095 -2.34947,-4.13384 1.13054,0.0787742 2.09486,0.197074 3.19262,0.15367 1.81375,-0.071848 8.23971,-0.62022 9.48883,-1.73026 -1.05417,-0.958496 -0.980476,-1.07994 -1.87664,-0.778599 -2.8078,0.944182 -7.62115,1.43105 -10.6386,0.873258 -0.11793,-0.0217945 -0.732702,-0.068154 -0.819603,-0.189963l-1.25697 -4.73809c-0.35333,-1.59303 -0.334028,-3.93797 -0.282959,-5.75356 0.10611,-3.76851 1.00661,-6.97461 2.15054,-9.9093 1.3315,-0.39895 8.21173,2.40127 8.40317,2.7885 0.314727,-0.0822835 1.05371,-0.270861 1.0888,-0.370784 0.0118207,-0.0337076 0.0471906,-0.0269661 0.0689851,-0.043312l-4.46196 -2.50923c-2.10751,-0.80732 -3.31581,-1.01714 -4.32353,-1.30592 0.304477,-0.694561 0.339662,-0.799378 0.71654,-1.45044 1.19833,-2.06992 2.92416,-4.3541 4.7223,-5.7821 0.754219,-0.598979 2.27143,-1.43955 2.32666,-1.79574l-3.39902 1.1106c-1.04623,0.788481 -1.63403,1.37093 -2.37939,2.19949 -1.39365,1.54935 -2.54368,3.59249 -3.60413,5.53543 -2.17308,0.0831146 -3.31701,0.0603966 -5.48159,0.530733 -2.61322,0.567858 -3.90048,1.57835 -4.38688,1.67818zm-3.7602 10.5638c0.120147,0.806489 0.171401,1.90268 0.266521,2.76024 0.255624,2.30514 1.20932,4.81261 2.17945,6.86093 2.54608,5.37613 7.19403,9.24198 12.6146,11.6263 3.01494,1.32623 6.36159,1.81966 10.2754,1.74799 3.38507,-0.0620589 7.18969,-1.35588 9.59143,-2.51856 2.83153,-1.37074 5.13482,-3.27425 6.91412,-5.21064 2.8753,-3.12908 5.26134,-8.02897 5.8823,-12.2237 0.425455,-2.87373 0.445125,-2.42492 0.397011,-5.6215 -0.0919802,-6.11604 -3.5706,-12.6078 -7.72061,-16.4911 -1.75538,-1.64262 -5.05512,-3.83546 -7.43202,-4.68573 -0.748401,-0.267721 -1.38764,-0.529625 -2.2428,-0.812676 -2.12173,-0.702134 -5.6517,-1.21587 -7.96746,-1.02841 -3.61078,0.292379 -4.59975,0.640352 -7.50193,1.69563 -3.28275,1.19362 -6.73533,3.87573 -8.86371,6.19555 -1.83018,1.99475 -3.72575,4.77512 -4.69773,7.41761 -0.913614,2.48402 -0.785156,2.24548 -1.31968,4.71195 -0.276402,1.27572 -0.600457,4.06117 -0.374847,5.57616z"/>
   <path id="_597688648" class="fil0" d="M45.0773 34.6357c-0.0802518,-0.903733 -0.847307,-3.04597 -1.06285,-4.93128 -0.21933,-1.91755 -0.212681,-3.63109 -0.197998,-5.69151 0.0241032,-3.38258 1.04974,-6.60161 2.04453,-9.69883 -3.28266,-0.337261 -7.5518,0.992389 -9.74667,3.16704 -0.66935,0.663255 -0.564625,0.829392 -0.810183,1.84718 -0.333844,1.38423 -0.615787,3.17923 -0.602489,4.6861 0.00978906,1.1081 0.175649,3.87933 0.482342,4.7102 1.14707,3.10766 7.46277,5.67497 9.89332,5.91111z"/>
   <path id="_597689752" class="fil0" d="M65.6147 11.1912c-1.82788,0.629547 -0.787557,3.36799 0.813969,2.74158 1.4872,-0.581618 0.924512,-3.34047 -0.813969,-2.74158z"/>
   <path id="_597689368" class="fil0" d="M73.4335 21.5019c-1.79371,0.695669 -0.697701,3.21173 0.838627,2.65902 0.519005,-0.186731 1.09859,-0.866978 0.89339,-1.74264 -0.166414,-0.709707 -0.947137,-1.22077 -1.73202,-0.916385z"/>
   <path id="_597689416" class="fil0" d="M65.4307 29.3555c-1.67771,0.904657 -0.282405,3.25615 1.07393,2.59585 1.61381,-0.785618 0.506722,-3.44806 -1.07393,-2.59585z"/>
   <path id="_597689632" class="fil0" d="M56.8145 19.8886c-1.74014,1.13137 -0.0814523,2.88713 1.16896,2.2972 1.99337,-1.26177 -0.0258579,-3.24166 -1.16896,-2.2972z"/>
  </g>
  <g id="_376382392">
   <path id="_597685504" class="fil1" d="M9.31789 15.9811c0.485389,-0.0996452 1.7696,-1.10783 4.37682,-1.67439 2.1596,-0.469321 3.30085,-0.446603 5.46904,-0.529533 1.05796,-1.93842 2.20531,-3.97685 3.59582,-5.52269 0.743599,-0.826621 1.33002,-1.40768 2.37385,-2.19441l3.39117 -1.1081c-0.0551327,0.355454 -1.56874,1.19399 -2.32121,1.79167 -1.79408,1.42477 -3.51593,3.70368 -4.71149,5.7688 -0.375955,0.649495 -0.41114,0.754127 -0.714878,1.44712 4.71121,1.35024 4.55256,1.13045 8.76527,3.80637 -0.0217022,0.0162535 -0.0569797,0.00960436 -0.0688004,0.0432196 -0.0350005,0.0996452 -0.77232,0.287854 -1.08631,0.36986 -0.236969,-0.26689 -7.11858,-3.02722 -8.38387,-2.78203 -1.14126,2.92785 -2.03963,6.12666 -2.14556,9.88649 -0.050977,1.81144 -0.0701857,4.15093 0.28222,5.74027l1.25411 4.72719c0.0867163,0.121532 0.700102,0.167799 0.817756,0.189594 3.0105,0.556406 7.81278,0.0706474 10.6141,-0.871318 0.894036,-0.30069 0.820526,-0.179528 1.8723,0.776845 -1.24626,1.10746 -7.65744,1.65454 -9.46703,1.7262 -1.09517,0.0434043 -2.05727,-0.0747108 -3.18523,-0.153208 0.220993,1.02194 1.73414,3.29919 2.34411,4.12433 0.871226,1.17875 2.03455,2.36009 3.04338,3.44224 -0.413541,-0.0553174 -2.09015,-0.831054 -2.3997,-1.04272 -0.738612,-0.504875 -1.36474,-1.1094 -1.82132,-1.7081 -1.13802,-1.49218 -1.70394,-2.61968 -2.59955,-4.43149 -0.526023,-1.06414 -0.0543016,-0.481326 -2.28473,-1.13525 -3.71901,-1.09046 -4.02376,-1.35458 -7.35925,-3.19465 0.0339846,0.89496 2.05358,4.25325 2.56787,4.93766 2.37948,3.16621 4.8164,5.18146 8.32855,6.80469 0.694377,0.320915 1.94368,0.728269 2.85434,0.941781 1.29012,0.302445 2.03382,0.348712 3.46154,0.338092 6.56051,-0.0485759 10.4115,-5.52888 11.5258,-11.2009 0.271138,-1.38026 -0.496102,-0.83207 -1.47427,-2.16689 -0.760407,-1.03792 -0.423146,-1.9555 -0.242048,-3.18163l-4.76607 -5.35231c-0.490192,0.0313065 -2.3877,0.876213 -3.65584,-1.07901 -1.71678,-2.64702 2.01544,-5.9885 4.38642,-3.81395 0.413357,0.379187 0.765209,0.862268 0.893759,1.70699l-0.456669 2.06752 4.73218 5.33051c0.353237,0.176111 1.93315,-0.810645 3.28534,0.519282 0.649587,0.638874 1.3013,1.94932 0.790882,3.18652 -0.731224,1.77228 -1.7129,1.29576 -1.92964,2.26727 -0.126242,0.565826 -0.240294,1.18725 -0.363026,1.72093 -0.144804,0.629362 -0.290901,1.08077 -0.475416,1.69794 -1.02296,3.42072 -3.42885,6.50261 -6.42855,8.32698l-1.38958 0.867994c2.61054,-0.0621513 5.68236,-1.80137 7.63593,-3.28201 2.84594,-2.1571 4.38965,-4.52568 5.8714,-7.64904 0.99479,-2.0968 1.96668,-6.85723 1.63819,-9.16847 -0.197813,-1.39208 -2.14463,-0.969763 -2.2573,-3.24101 -0.0558715,-1.12703 0.110912,-1.30545 0.495179,-2.28981 -0.330704,-0.687266 -3.60173,-4.79442 -4.1138,-5.43662 -0.473015,0.0277049 -2.29572,1.01151 -3.83362,-1.00606 -0.801594,-1.05158 -0.820896,-2.95445 0.509493,-4.11741 2.09587,-1.83212 4.76025,-0.00766502 4.93562,1.80359 0.0899485,0.928667 -0.194765,1.39448 -0.522422,2.19053 0.801779,0.875659 1.44887,1.81855 2.22128,2.77714l2.20882 2.94632c1.64438,-0.18553 2.53352,-0.00267814 3.37104,1.08631 0.982507,1.27766 0.503582,3.20961 -0.762438,4.07751 -0.401628,0.275294 -0.443186,0.114975 -0.610061,0.613571 -0.199106,0.595008 -0.129844,1.44897 -0.156533,2.20771 -0.0460824,1.30887 -0.312142,2.97144 -0.556129,4.24494 -0.462394,2.41328 -1.55193,4.88363 -2.74712,6.75546 -2.07131,3.24415 -2.37145,3.0093 -4.28003,5.31296 1.00486,-0.179343 3.55472,-2.07722 4.25048,-2.68017 3.97149,-3.44141 6.44231,-7.52169 7.50119,-13.0561 3.01337,-15.7505 -10.9139,-29.5214 -27.0134,-25.8862 -3.97768,0.898192 -6.4267,2.3539 -9.13162,4.58691 -1.26824,1.04697 -2.37375,2.32527 -3.34333,3.50938 -0.515403,0.629455 -2.46573,3.45147 -2.6074,4.28881z"/>
   <path id="_597686704" class="fil2" d="M37.9685 30.2317c1.57696,-0.850263 2.68156,1.80608 1.07135,2.58994 -1.35311,0.65873 -2.74528,-1.68741 -1.07135,-2.58994zm7.98436 -7.83549c0.783032,-0.303738 1.562,0.206217 1.72805,0.914261 0.204739,0.873627 -0.373554,1.5524 -0.891266,1.73857 -1.53282,0.551419 -2.62633,-1.95883 -0.83678,-2.65283zm-16.4954 -1.6803c1.00772,-0.808428 3.02039,1.44749 1.08086,2.36258 -1.24755,0.588544 -2.85794,-0.937441 -1.08086,-2.36258zm-11.7955 14.7838c-2.42501,-0.235584 -8.72621,-2.79699 -9.8706,-5.89744 -0.305954,-0.829022 -0.471445,-3.59378 -0.481141,-4.69939 -0.0132983,-1.50336 0.267999,-3.29429 0.601103,-4.67529 0.244911,-1.01548 0.140464,-1.18124 0.808244,-1.84293 2.18979,-2.16966 6.44914,-3.49626 9.72423,-3.15974 -0.992389,3.09011 -2.01571,6.30175 -2.03982,9.67648 -0.0146836,2.0557 -0.0212404,3.76528 0.197536,5.67848 0.215082,1.88098 0.980291,4.01822 1.06045,4.91983zm20.4901 -23.3906c1.73451,-0.597409 2.2959,2.15507 0.812122,2.73539 -1.59792,0.62493 -2.63584,-2.10723 -0.812122,-2.73539zm-28.8341 3.87203c0.141664,-0.837334 2.092,-3.65935 2.6074,-4.28881 0.969578,-1.18411 2.0751,-2.46241 3.34333,-3.50938 2.70492,-2.23301 5.15394,-3.68872 9.13162,-4.58691 16.0995,-3.63516 30.0267,10.1357 27.0134,25.8862 -1.05888,5.53442 -3.52969,9.6147 -7.50119,13.0561 -0.695762,0.60295 -3.24563,2.50083 -4.25048,2.68017 1.90859,-2.30366 2.20873,-2.06882 4.28003,-5.31296 1.19519,-1.87183 2.28473,-4.34219 2.74712,-6.75546 0.243988,-1.2735 0.510047,-2.93607 0.556129,-4.24494 0.026689,-0.758744 -0.0425732,-1.6127 0.156533,-2.20771 0.166876,-0.498595 0.208433,-0.338277 0.610061,-0.613571 1.26602,-0.867901 1.74495,-2.79985 0.762438,-4.07751 -0.837518,-1.08899 -1.72666,-1.27184 -3.37104,-1.08631l-2.20882 -2.94632c-0.772412,-0.958589 -1.41951,-1.90148 -2.22128,-2.77714 0.327656,-0.796053 0.61237,-1.26186 0.522422,-2.19053 -0.175372,-1.81125 -2.83975,-3.63571 -4.93562,-1.80359 -1.33039,1.16296 -1.31109,3.06582 -0.509493,4.11741 1.5379,2.01756 3.3606,1.03376 3.83362,1.00606 0.512078,0.642199 3.7831,4.74935 4.1138,5.43662 -0.384267,0.984354 -0.55105,1.16277 -0.495179,2.28981 0.112666,2.27125 2.05949,1.84893 2.2573,3.24101 0.328487,2.31123 -0.6434,7.07167 -1.63819,9.16847 -1.48175,3.12336 -3.02546,5.49194 -5.8714,7.64904 -1.95356,1.48064 -5.02539,3.21986 -7.63593,3.28201l1.38958 -0.867994c2.9997,-1.82437 5.40559,-4.90626 6.42855,-8.32698 0.184514,-0.617172 0.330612,-1.06858 0.475416,-1.69794 0.122733,-0.533688 0.236784,-1.15511 0.363026,-1.72093 0.216744,-0.971518 1.19842,-0.494994 1.92964,-2.26727 0.510416,-1.23721 -0.141295,-2.54765 -0.790882,-3.18652 -1.35218,-1.32993 -2.9321,-0.343171 -3.28534,-0.519282l-4.73218 -5.33051c0.330242,-0.935778 1.06544,-2.05746 -0.437091,-3.77451 -2.37098,-2.17456 -6.1032,1.16693 -4.38642,3.81395 1.26814,1.95523 3.16565,1.11032 3.65584,1.07901l4.76607 5.35231c-0.181098,1.22613 -0.518358,2.14371 0.242048,3.18163 0.978167,1.33482 1.74541,0.786634 1.47427,2.16689 -1.11429,5.67202 -4.96527,11.1523 -11.5258,11.2009 -1.42772,0.0106202 -2.17142,-0.0356469 -3.46154,-0.338092 -0.910659,-0.213512 -2.15996,-0.620866 -2.85434,-0.941781 -3.51215,-1.62323 -5.94907,-3.63848 -8.32855,-6.80469 -0.514295,-0.684403 -2.53389,-4.0427 -2.56787,-4.93766 3.33548,1.84007 3.64024,2.10419 7.35925,3.19465 2.23043,0.653927 1.75871,0.0711092 2.28473,1.13525 0.895606,1.81181 1.46152,2.9393 2.59955,4.43149 0.456576,0.598702 1.08271,1.20322 1.82132,1.7081 0.309556,0.211665 1.98616,0.987402 2.3997,1.04272 -1.00883,-1.08215 -2.17215,-2.26349 -3.04338,-3.44224 -0.609969,-0.825144 -2.12312,-3.10239 -2.34411,-4.12433 1.12796,0.0784972 2.09006,0.196612 3.18523,0.153208 1.80959,-0.0716633 8.22078,-0.618742 9.46703,-1.7262 -1.05177,-0.956372 -0.978259,-1.07754 -1.8723,-0.776845 -2.80133,0.941966 -7.6036,1.42772 -10.6141,0.871318 -0.117653,-0.0217945 -0.731039,-0.0680616 -0.817756,-0.189594l-1.25411 -4.72719c-0.352406,-1.58934 -0.333197,-3.92883 -0.28222,-5.74027 0.105925,-3.75983 1.0043,-6.95863 2.14556,-9.88649 1.32845,-0.398027 8.19289,2.39573 8.38387,2.78203 0.313989,-0.0820064 1.05131,-0.270215 1.08631,-0.36986 0.0118207,-0.0336153 0.0470983,-0.0269661 0.0688004,-0.0432196l-4.45171 -2.50351c-2.10262,-0.805473 -3.30815,-1.01474 -4.31356,-1.30287 0.303738,-0.692991 0.338923,-0.797623 0.714878,-1.44712 1.19556,-2.06512 2.91742,-4.34403 4.71149,-5.7688 0.752464,-0.597687 2.26607,-1.43622 2.32121,-1.79167l-3.39117 1.1081c-1.04383,0.786726 -1.63025,1.36779 -2.37385,2.19441 -1.39051,1.54584 -2.53786,3.58427 -3.59582,5.52269 -2.16818,0.0829299 -3.30944,0.0602119 -5.46904,0.529533 -2.60721,0.566565 -3.89143,1.57475 -4.37682,1.67439zm-3.75152 10.5394c0.11987,0.804642 0.171031,1.89825 0.265874,2.75386 0.25507,2.29978 1.20655,4.80153 2.17446,6.84514 2.54026,5.36376 7.1775,9.22074 12.5855,11.5996 3.0081,1.32318 6.347,1.81541 10.2517,1.74384 3.37732,-0.0618742 7.17316,-1.35274 9.56945,-2.51274 2.82497,-1.36761 5.123,-3.26668 6.89814,-5.19864 2.86866,-3.12188 5.24924,-8.0105 5.86882,-12.1955 0.424439,-2.86709 0.444017,-2.41937 0.395995,-5.60858 -0.0917955,-6.102 -3.56229,-12.5788 -7.70279,-16.4532 -1.75141,-1.63884 -5.04349,-3.8266 -7.41493,-4.67492 -0.746646,-0.267075 -1.38441,-0.528424 -2.23763,-0.810737 -2.11684,-0.700656 -5.63868,-1.2131 -7.94908,-1.0261 -3.60256,0.291732 -4.58922,0.638874 -7.48475,1.69166 -3.27509,1.19094 -6.71973,3.86686 -8.84321,6.18133 -1.82603,1.99023 -3.71726,4.76413 -4.68693,7.40053 -0.911583,2.47829 -0.783402,2.24031 -1.31663,4.70106 -0.275848,1.27285 -0.599164,4.05193 -0.374016,5.56342z"/>
   <path id="_597687040" class="fil1" d="M17.662 35.4996c-0.0801594,-0.901609 -0.845368,-3.03886 -1.06045,-4.91983 -0.218776,-1.91321 -0.212219,-3.62278 -0.197536,-5.67848 0.0241032,-3.37473 1.04743,-6.58637 2.03982,-9.67648 -3.27509,-0.336522 -7.53443,0.99008 -9.72423,3.15974 -0.66778,0.661685 -0.563332,0.827452 -0.808244,1.84293 -0.333105,1.381 -0.614402,3.17193 -0.601103,4.67529 0.00969671,1.10561 0.175187,3.87037 0.481141,4.69939 1.1444,3.10045 7.44559,5.66186 9.8706,5.89744z"/>
   <path id="_597687640" class="fil1" d="M38.152 12.1091c-1.82372,0.628162 -0.785803,3.36032 0.812122,2.73539 1.48378,-0.580325 0.922388,-3.3328 -0.812122,-2.73539z"/>
   <path id="_597687784" class="fil1" d="M45.9529 22.3962c-1.78955,0.694007 -0.696039,3.20425 0.83678,2.65283 0.517712,-0.186177 1.096,-0.864946 0.891266,-1.73857 -0.166045,-0.708044 -0.945013,-1.218 -1.72805,-0.914261z"/>
   <path id="_597688408" class="fil1" d="M37.9685 30.2317c-1.67393,0.902533 -0.281759,3.24867 1.07135,2.58994 1.61021,-0.783863 0.505614,-3.44021 -1.07135,-2.58994z"/>
   <path id="_597688768" class="fil1" d="M29.3722 20.7866c-1.73626,1.1287 -0.08136,2.88038 1.16619,2.29184 1.98884,-1.25891 -0.0257655,-3.23417 -1.16619,-2.29184z"/>
  </g>
  <path class="fil3" d="M33.622 60.1529l-28.8564 0 3.88376 -6.24782 21.1763 0c0.57543,0 1.16333,0.200122 1.76369,0.606644 0.594177,0.400243 1.03819,0.869287 1.31958,1.40713 0.475323,0.894313 0.713031,2.30154 0.713031,4.23404zm-0.662978 2.49538c-0.0938272,0.637859 -0.337722,1.36336 -0.731686,2.18268 -0.550404,1.14449 -1.47602,2.1076 -2.78314,2.87687 -1.95753,1.14449 -4.55921,1.71983 -7.80502,1.71983l-8.63072 0 -2.89562 10.313 -8.57429 0 4.69053 -17.0362 26.7299 -0.0562409z"/>
  <path id="1" class="fil3" d="M59.9704 53.9051l-1.79491 6.28531 -24.3284 0 3.99015 -6.28531 22.1331 0zm-2.30772 8.7432l-2.07011 6.85446 -12.0579 0 -2.80179 10.238 -9.85647 0 4.76561 -17.0924 22.0207 0z"/>
  <path id="12" class="fil3" d="M85.8061 53.9051l-1.85115 6.28531 -22.4647 0c0.462764,-1.53854 1.33205,-2.93312 2.60167,-4.17771 1.43216,-1.40722 2.91437,-2.1076 4.45291,-2.1076l17.2612 0zm-5.31592 18.9499l-1.95753 6.99825 -11.8953 0c-4.12775,0 -6.76073,-1.32586 -7.89266,-3.97759 -0.344002,-0.794206 -0.456576,-1.9012 -0.331443,-3.31461 0.0249344,-0.281482 0.0812676,-0.781739 0.162535,-1.50096l2.18268 -8.35551 9.30607 -0.0562409 -2.68922 8.29918c0.0812676,0.331443 0.162628,0.662885 0.237615,0.988141 0.231428,0.469044 0.694284,0.77546 1.38848,0.91934l11.4888 0z"/>
 </g>
</svg>
