<?xml version="1.0" encoding="UTF-8"?>
<!DOCTYPE svg PUBLIC "-//W3C//DTD SVG 1.1//EN" "http://www.w3.org/Graphics/SVG/1.1/DTD/svg11.dtd">
<!-- Creator: CorelDRAW -->
<svg xmlns="http://www.w3.org/2000/svg" xml:space="preserve" width="27.4413mm" height="17.956mm" style="shape-rendering:geometricPrecision; text-rendering:geometricPrecision; image-rendering:optimizeQuality; fill-rule:evenodd; clip-rule:evenodd"
viewBox="0 0 8.48861 5.55446"
 xmlns:xlink="http://www.w3.org/1999/xlink">
 <defs>
  <style type="text/css">
   <![CDATA[
    .fil2 {fill:black}
    .fil0 {fill:#11110F}
    .fil1 {fill:white}
   ]]>
  </style>
 </defs>
 <g id="Layer_x0020_1">
  <metadata id="CorelCorpID_0Corel-Layer"/>
  <g id="_778913768">
   <path id="_778914560" class="fil0" d="M3.50575 1.69229c0.0546289,-0.011198 0.199151,-0.124663 0.492558,-0.188417 0.243046,-0.0528039 0.371483,-0.0502673 0.615488,-0.0596093 0.119064,-0.218145 0.248181,-0.447549 0.404675,-0.621489 0.0836757,-0.0930486 0.149688,-0.158442 0.267144,-0.246975l0.381629 -0.124694c-0.00618674,0.0399973 -0.176539,0.134376 -0.261235,0.201626 -0.201904,0.16036 -0.395673,0.416801 -0.530204,0.649206 -0.0423173,0.0730964 -0.0462768,0.0848821 -0.0804586,0.162866 0.530204,0.151946 0.512324,0.12723 0.986414,0.42837 -0.00241283,0.00182509 -0.00640328,0.00108268 -0.00773343,0.00485659 -0.00392858,0.0112289 -0.0868928,0.0323876 -0.12225,0.0416368 -0.0266649,-0.0300366 -0.801121,-0.340673 -0.943509,-0.31308 -0.128437,0.329475 -0.229528,0.689482 -0.241438,1.11259 -0.00575367,0.203853 -0.00791903,0.46713 0.0317689,0.64602l0.14112 0.531967c0.00974412,0.0136727 0.0787882,0.0189005 0.0920278,0.0213443 0.338786,0.0626098 0.879229,0.00794997 1.19447,-0.0980599 0.100627,-0.0338415 0.0923681,-0.0201997 0.21072,0.0874187 -0.140253,0.124632 -0.861751,0.186221 -1.06539,0.194264 -0.123271,0.00488753 -0.231539,-0.00838304 -0.358491,-0.0172301 0.0248707,0.115012 0.195161,0.371266 0.263803,0.464129 0.0980599,0.132675 0.228971,0.265628 0.342498,0.387383 -0.0465243,-0.00621768 -0.235189,-0.0935126 -0.270051,-0.117332 -0.0831189,-0.0568252 -0.153586,-0.124848 -0.204967,-0.192222 -0.128066,-0.167939 -0.191758,-0.294829 -0.29254,-0.498713 -0.0592071,-0.119775 -0.00612488,-0.0541649 -0.257121,-0.127756 -0.418533,-0.122714 -0.452839,-0.152441 -0.828188,-0.359512 0.00380485,0.100689 0.231106,0.478637 0.288983,0.555662 0.267762,0.356325 0.542021,0.583101 0.937261,0.765795 0.0781386,0.0360996 0.218732,0.0819434 0.321216,0.105979 0.145203,0.0340271 0.22891,0.0392549 0.389579,0.0380485 0.738295,-0.00547527 1.17168,-0.622201 1.29708,-1.26052 0.0305316,-0.155349 -0.0558354,-0.0936364 -0.165898,-0.243881 -0.0855936,-0.116806 -0.0476379,-0.220062 -0.0272526,-0.358058l-0.53636 -0.602341c-0.0551548,0.00352644 -0.268721,0.0986167 -0.411418,-0.121415 -0.193212,-0.297892 0.226806,-0.673953 0.49364,-0.429205 0.0465243,0.0426576 0.0861195,0.0970391 0.100566,0.192098l-0.0513809 0.232652 0.532555 0.599898c0.0397498,0.0198285 0.217557,-0.0912235 0.36972,0.0584338 0.0730964,0.07189 0.14644,0.219382 0.0889963,0.358615 -0.0822837,0.199461 -0.192748,0.145822 -0.217155,0.255172 -0.0141986,0.0636616 -0.0270361,0.133603 -0.0408634,0.193645 -0.0162711,0.0708382 -0.0327279,0.121631 -0.0534844,0.191078 -0.115135,0.38497 -0.385867,0.731799 -0.723447,0.937106l-0.156401 0.0976887c0.293778,-0.00699102 0.639493,-0.202709 0.859339,-0.369349 0.320288,-0.242768 0.494011,-0.509293 0.660775,-0.860793 0.111949,-0.235993 0.2213,-0.771703 0.184334,-1.03183 -0.0222413,-0.156648 -0.241345,-0.109134 -0.254028,-0.364739 -0.00627954,-0.126828 0.0124972,-0.146904 0.0557116,-0.257678 -0.0371823,-0.0773652 -0.405294,-0.539546 -0.462954,-0.611838 -0.053206,0.00312431 -0.258358,0.113836 -0.431433,-0.113217 -0.0902027,-0.118352 -0.0923681,-0.332507 0.0573511,-0.463356 0.23587,-0.206204 0.53571,-0.000866144 0.555446,0.202956 0.0101153,0.104525 -0.0219011,0.156958 -0.0587741,0.246542 0.0902337,0.0985239 0.163052,0.204627 0.249975,0.312523l0.248583 0.331579c0.185045,-0.0208803 0.285085,-0.000309337 0.37934,0.12225 0.110588,0.14378 0.0567015,0.361182 -0.0857792,0.458871 -0.0452251,0.0309956 -0.0498961,0.0129303 -0.0686729,0.0690441 -0.022396,0.0669715 -0.0146007,0.163083 -0.0176013,0.24846 -0.00519686,0.147306 -0.0351407,0.334393 -0.0625789,0.477709 -0.0520305,0.271598 -0.174683,0.549599 -0.309182,0.760258 -0.233086,0.36508 -0.266865,0.338662 -0.481669,0.597918 0.113094,-0.0201997 0.400066,-0.233766 0.478359,-0.301635 0.44693,-0.38729 0.724994,-0.84647 0.84415,-1.46929 0.339126,-1.77256 -1.22822,-3.32231 -3.04001,-2.91321 -0.447642,0.101091 -0.723261,0.264916 -1.02768,0.516191 -0.142728,0.117827 -0.267144,0.261699 -0.376247,0.394962 -0.0580007,0.0708382 -0.277475,0.388404 -0.293437,0.482628z"/>
   <path id="_778915280" class="fil1" d="M6.73006 3.29605c0.177467,-0.095678 0.301758,0.203235 0.120549,0.291457 -0.152287,0.0741481 -0.308935,-0.189902 -0.120549,-0.291457zm0.898532 -0.881797c0.0881302,-0.0341818 0.175796,0.0232003 0.19448,0.102886 0.0230456,0.0983074 -0.0420389,0.174714 -0.100318,0.195656 -0.172486,0.062053 -0.295541,-0.220434 -0.0941622,-0.298541zm-1.85636 -0.189098c0.113403,-0.0909761 0.339931,0.162897 0.121631,0.265875 -0.140377,0.0662291 -0.321618,-0.105484 -0.121631,-0.265875zm-1.32746 1.66374c-0.272897,-0.0265102 -0.982022,-0.314751 -1.1108,-0.663683 -0.0344292,-0.0932961 -0.0530513,-0.404458 -0.0541649,-0.528874 -0.00148482,-0.169176 0.0301604,-0.370741 0.067652,-0.526152 0.0275619,-0.114269 0.0158071,-0.132922 0.0909761,-0.20738 0.246418,-0.244191 0.725767,-0.393477 1.09434,-0.355614 -0.111702,0.347757 -0.226868,0.709186 -0.229559,1.08899 -0.00167042,0.231353 -0.0023819,0.42373 0.0222104,0.639029 0.0242211,0.211679 0.110341,0.45222 0.119342,0.553683zm2.30592 -2.63234c0.195192,-0.0672499 0.258389,0.24252 0.0914091,0.307821 -0.179818,0.0703433 -0.296623,-0.237138 -0.0914091,-0.307821zm-3.24495 0.435732c0.0159618,-0.0942241 0.235437,-0.41179 0.293437,-0.482628 0.109103,-0.133262 0.233519,-0.277135 0.376247,-0.394962 0.304419,-0.251275 0.580038,-0.4151 1.02768,-0.516191 1.81179,-0.409098 3.37914,1.14065 3.04001,2.91321 -0.119157,0.622819 -0.39722,1.082 -0.84415,1.46929 -0.0782932,0.0678686 -0.365265,0.281435 -0.478359,0.301635 0.214804,-0.259255 0.248583,-0.232838 0.481669,-0.597918 0.1345,-0.210659 0.257152,-0.48866 0.309182,-0.760258 0.0274382,-0.143316 0.057382,-0.330403 0.0625789,-0.477709 0.00300057,-0.0853771 -0.00479473,-0.181488 0.0176013,-0.24846 0.0187768,-0.0561138 0.0234478,-0.0380485 0.0686729,-0.0690441 0.142481,-0.0976887 0.196367,-0.315091 0.0857792,-0.458871 -0.094255,-0.122559 -0.194295,-0.14313 -0.37934,-0.12225l-0.248583 -0.331579c-0.0869237,-0.107897 -0.159742,-0.213999 -0.249975,-0.312523 0.036873,-0.089584 0.0688894,-0.142017 0.0587741,-0.246542 -0.0197357,-0.203822 -0.319576,-0.40916 -0.555446,-0.202956 -0.149719,0.13085 -0.147554,0.345004 -0.0573511,0.463356 0.173074,0.227053 0.378227,0.116342 0.431433,0.113217 0.0576604,0.0722921 0.425772,0.534473 0.462954,0.611838 -0.0432144,0.110774 -0.0619912,0.13085 -0.0557116,0.257678 0.0126828,0.255605 0.231786,0.208091 0.254028,0.364739 0.0369658,0.260122 -0.0723849,0.795832 -0.184334,1.03183 -0.166764,0.3515 -0.340487,0.618025 -0.660775,0.860793 -0.219846,0.16664 -0.565561,0.362358 -0.859339,0.369349l0.156401 -0.0976887c0.33758,-0.205307 0.608312,-0.552136 0.723447,-0.937106 0.0207565,-0.0694462 0.0372133,-0.120239 0.0534844,-0.191078 0.0138274,-0.0600423 0.0266649,-0.129983 0.0408634,-0.193645 0.0244067,-0.109351 0.134871,-0.0557116 0.217155,-0.255172 0.0574439,-0.139233 -0.0158999,-0.286725 -0.0889963,-0.358615 -0.152163,-0.149657 -0.32997,-0.0386053 -0.36972,-0.0584338l-0.532555 -0.599898c0.0371514,-0.105298 0.119899,-0.231539 -0.0491846,-0.424751 -0.266834,-0.244748 -0.686852,0.131314 -0.49364,0.429205 0.142697,0.220032 0.356264,0.124941 0.411418,0.121415l0.53636 0.602341c-0.0203853,0.137995 -0.058341,0.241252 0.0272526,0.358058 0.110062,0.150245 0.196429,0.0885323 0.165898,0.243881 -0.125405,0.638317 -0.558787,1.25504 -1.29708,1.26052 -0.16067,0.00120641 -0.244376,-0.00402138 -0.389579,-0.0380485 -0.102483,-0.0240355 -0.243077,-0.0698793 -0.321216,-0.105979 -0.39524,-0.182695 -0.669498,-0.40947 -0.937261,-0.765795 -0.057877,-0.077025 -0.285178,-0.454973 -0.288983,-0.555662 0.37535,0.20707 0.409655,0.236798 0.828188,0.359512 0.250996,0.0735913 0.197914,0.0079809 0.257121,0.127756 0.100782,0.203884 0.164475,0.330774 0.29254,0.498713 0.0513809,0.0673736 0.121848,0.135397 0.204967,0.192222 0.0348623,0.023819 0.223527,0.111114 0.270051,0.117332 -0.113527,-0.121755 -0.244438,-0.254708 -0.342498,-0.387383 -0.0686419,-0.092863 -0.238932,-0.349118 -0.263803,-0.464129 0.126952,0.00884704 0.23522,0.0221176 0.358491,0.0172301 0.203637,-0.00804277 0.925135,-0.0696318 1.06539,-0.194264 -0.118352,-0.107618 -0.110093,-0.12126 -0.21072,-0.0874187 -0.315246,0.10601 -0.855688,0.16067 -1.19447,0.0980599 -0.0132396,-0.00244376 -0.0822837,-0.00767156 -0.0920278,-0.0213443l-0.14112 -0.531967c-0.039688,-0.17889 -0.0375226,-0.442167 -0.0317689,-0.64602 0.0119095,-0.423111 0.113001,-0.783118 0.241438,-1.11259 0.149503,-0.044823 0.92201,0.269587 0.943509,0.31308 0.0353572,-0.00924918 0.118321,-0.0304078 0.12225,-0.0416368 0.00133015,-0.00377391 0.0053206,-0.0030315 0.00773343,-0.00485659l-0.500972 -0.281744c-0.236643,-0.0906358 -0.372287,-0.114207 -0.485443,-0.146626 0.0341818,-0.0779839 0.0381413,-0.0897696 0.0804586,-0.162866 0.134531,-0.232405 0.3283,-0.488846 0.530204,-0.649206 0.0846965,-0.0672499 0.255048,-0.161629 0.261235,-0.201626l-0.381629 0.124694c-0.117455,0.0885323 -0.183468,0.153926 -0.267144,0.246975 -0.156494,0.17394 -0.285611,0.403345 -0.404675,0.621489 -0.244005,0.00934198 -0.372442,0.00680542 -0.615488,0.0596093 -0.293406,0.0637544 -0.437929,0.177219 -0.492558,0.188417zm-0.422183 1.18609c0.0134871,0.0905739 0.0192408,0.213628 0.0299129,0.309925 0.0287065,0.258822 0.135799,0.54035 0.244717,0.770342 0.285889,0.603641 0.807741,1.0377 1.41636,1.3054 0.338508,0.148915 0.71426,0.204286 1.1537,0.196243 0.380083,-0.00696009 0.807246,-0.152225 1.07693,-0.282765 0.317937,-0.153926 0.576543,-0.367647 0.776313,-0.585049 0.322824,-0.351345 0.590741,-0.901501 0.660466,-1.37247 0.0477617,-0.32267 0.0499889,-0.272279 0.0445755,-0.631202 -0.0103319,-0.686698 -0.400901,-1.41556 -0.866886,-1.8516 -0.197079,-0.184427 -0.567572,-0.430628 -0.834437,-0.526121 -0.0840469,-0.0300366 -0.155813,-0.0594546 -0.251831,-0.0912235 -0.238221,-0.07885 -0.634574,-0.136541 -0.894572,-0.115476 -0.405417,0.0328207 -0.516469,0.07189 -0.842325,0.190366 -0.368575,0.134036 -0.756237,0.435176 -0.9952,0.695637 -0.205493,0.223991 -0.418317,0.536174 -0.527451,0.832859 -0.102607,0.278898 -0.0881611,0.25211 -0.148173,0.529059 -0.0310575,0.143223 -0.0674355,0.455963 -0.0421008,0.626067z"/>
   <path id="_778915112" class="fil0" d="M4.44477 3.88889c-0.00900171,-0.101463 -0.0951212,-0.342003 -0.119342,-0.553683 -0.0245923,-0.215299 -0.0238808,-0.407675 -0.0222104,-0.639029 0.00269123,-0.379804 0.117857,-0.741234 0.229559,-1.08899 -0.368575,-0.0378629 -0.847924,0.111423 -1.09434,0.355614 -0.0751689,0.0744575 -0.0634141,0.0931105 -0.0909761,0.20738 -0.0374917,0.155411 -0.0691369,0.356975 -0.067652,0.526152 0.00111361,0.124415 0.0197357,0.435578 0.0541649,0.528874 0.128777,0.348932 0.837902,0.637173 1.1108,0.663683z"/>
   <path id="_778915136" class="fil0" d="M6.7507 1.25656c-0.205214,0.0706835 -0.0884086,0.378165 0.0914091,0.307821 0.16698,-0.0653011 0.103783,-0.375071 -0.0914091,-0.307821z"/>
   <path id="_778915952" class="fil0" d="M7.62859 2.41425c-0.201378,0.0781076 -0.0783242,0.360594 0.0941622,0.298541 0.0582791,-0.0209421 0.123364,-0.0973484 0.100318,-0.195656 -0.018684,-0.0796853 -0.10635,-0.137067 -0.19448,-0.102886z"/>
   <path id="_778915424" class="fil0" d="M6.73006 3.29605c-0.188386,0.101555 -0.031738,0.365606 0.120549,0.291457 0.18121,-0.088223 0.056918,-0.387135 -0.120549,-0.291457z"/>
   <path id="_778915544" class="fil0" d="M5.76264 2.23311c-0.195408,0.127014 -0.00915638,0.324154 0.131221,0.257925 0.223836,-0.141676 -0.00287684,-0.363966 -0.131221,-0.257925z"/>
  </g>
  <g id="_801322264">
   <path id="_778916744" class="fil1" d="M0.429731 1.79437c0.0545052,-0.011198 0.198687,-0.124384 0.491413,-0.187984 0.242489,-0.0527111 0.370648,-0.0501436 0.614065,-0.0594855 0.118785,-0.217619 0.247624,-0.446497 0.403747,-0.620066 0.0834901,-0.0928321 0.149348,-0.158071 0.266525,-0.246387l0.380763 -0.124415c-0.00618674,0.0399045 -0.176137,0.134067 -0.260617,0.201162 -0.20144,0.159958 -0.394776,0.415842 -0.528997,0.647721 -0.0422245,0.0729108 -0.0461531,0.0846656 -0.080273,0.162464 0.528967,0.151606 0.511149,0.126952 0.984156,0.42738 -0.00244376,0.00182509 -0.00640328,0.00108268 -0.00773343,0.00485659 -0.00392858,0.011198 -0.0867072,0.0323257 -0.121972,0.041544 -0.026603,-0.0299748 -0.799265,-0.3399 -0.941313,-0.312369 -0.128158,0.328733 -0.229033,0.687904 -0.240912,1.11003 -0.00572274,0.203389 -0.0078881,0.466078 0.0317071,0.644535l0.14081 0.530761c0.00971319,0.0136418 0.0786026,0.0188386 0.0918113,0.0212824 0.338013,0.0624861 0.877187,0.00794997 1.19172,-0.0978124 0.100411,-0.0337796 0.0921515,-0.0201688 0.210226,0.0872021 -0.139913,0.124354 -0.859772,0.185788 -1.06294,0.193831 -0.122962,0.00485659 -0.230982,-0.00838304 -0.357625,-0.0171991 0.0248088,0.114733 0.194697,0.370431 0.263184,0.463078 0.0978124,0.132334 0.228445,0.264978 0.341694,0.386486 -0.0464315,-0.00621768 -0.234663,-0.093327 -0.269433,-0.117084 -0.0829024,-0.0566706 -0.153215,-0.12457 -0.204472,-0.191789 -0.127787,-0.167537 -0.191325,-0.294118 -0.291891,-0.497569 -0.0590525,-0.119466 -0.00609394,-0.0540103 -0.256533,-0.127447 -0.417574,-0.122436 -0.451787,-0.152101 -0.826271,-0.358707 0.00380485,0.100504 0.230549,0.477555 0.288302,0.554394 0.267175,0.355521 0.540783,0.58177 0.935126,0.764032 0.077953,0.0360378 0.218237,0.0817887 0.320473,0.105762 0.144863,0.0339343 0.228353,0.0391312 0.388682,0.0379557 0.736594,-0.00547527 1.16899,-0.620778 1.29408,-1.25764 0.0304388,-0.154978 -0.0556807,-0.0934198 -0.165526,-0.243294 -0.0853771,-0.116527 -0.0475142,-0.219568 -0.0271598,-0.357223l-0.535153 -0.600949c-0.0550311,0.00349551 -0.268072,0.0983692 -0.410459,-0.121167 -0.192748,-0.297211 0.22628,-0.672375 0.492496,-0.428215 0.0464315,0.0425648 0.0859339,0.0968225 0.100349,0.191665l-0.0512572 0.232127 0.531318 0.598506c0.039657,0.0197666 0.217062,-0.091007 0.368885,0.0583101 0.0729108,0.0717353 0.1461,0.218856 0.0887798,0.357779 -0.0820981,0.198997 -0.192315,0.145481 -0.21666,0.254584 -0.0141676,0.0635069 -0.0269742,0.133293 -0.0407397,0.193212 -0.0162711,0.0706526 -0.032666,0.121353 -0.0533916,0.190644 -0.114857,0.384073 -0.38497,0.730098 -0.721776,0.934941l-0.15603 0.0974721c0.293097,-0.00699102 0.638008,-0.202276 0.857359,-0.368513 0.319545,-0.242211 0.492867,-0.508148 0.659228,-0.858813 0.111702,-0.235437 0.220805,-0.76994 0.183932,-1.02944 -0.0222104,-0.156308 -0.240788,-0.108887 -0.25344,-0.363904 -0.00627954,-0.12655 0.0124354,-0.146564 0.0555879,-0.25709 -0.0371205,-0.0771796 -0.404396,-0.538309 -0.461902,-0.610415 -0.0530823,0.00309337 -0.25774,0.113558 -0.430412,-0.11297 -0.0900171,-0.118074 -0.0921825,-0.331733 0.0571964,-0.462304 0.235313,-0.205709 0.534473,-0.000866144 0.554178,0.202523 0.0100844,0.104247 -0.0218701,0.156556 -0.0586813,0.245954 0.090048,0.0983074 0.16268,0.204163 0.249419,0.311812l0.247996 0.330805c0.184643,-0.0208493 0.284466,-0.000309337 0.378505,0.121972 0.11031,0.14344 0.0565468,0.360347 -0.0856245,0.457819 -0.0450704,0.0309028 -0.0497414,0.0128994 -0.0684872,0.0688894 -0.0223651,0.0668168 -0.0145698,0.16268 -0.0175704,0.247872 -0.00516593,0.146966 -0.0350479,0.33362 -0.0624242,0.476627 -0.0519377,0.270948 -0.174281,0.548331 -0.308471,0.758495 -0.23256,0.364245 -0.266246,0.337889 -0.480555,0.596526 0.112815,-0.0201378 0.399138,-0.233209 0.477245,-0.300923 0.44591,-0.386393 0.723354,-0.844521 0.842232,-1.46592 0.338322,-1.76845 -1.22541,-3.31464 -3.03305,-2.9065 -0.446621,0.100844 -0.721591,0.264298 -1.02527,0.515015 -0.142419,0.117548 -0.266556,0.261081 -0.375412,0.394034 -0.057877,0.0706835 -0.276857,0.387538 -0.292757,0.481545z"/>
   <path id="_778916384" class="fil2" d="M3.64662 3.39442c0.177034,-0.0954614 0.301078,0.202771 0.12027,0.290777 -0.151915,0.0739935 -0.308224,-0.189438 -0.12027,-0.290777zm0.896459 -0.879755c0.0879446,-0.0341199 0.175394,0.0231384 0.194016,0.102638 0.0230147,0.0980908 -0.0419152,0.174311 -0.100071,0.195223 -0.172084,0.0618984 -0.29486,-0.219939 -0.0939457,-0.297861zm-1.85209 -0.188696c0.113156,-0.0907595 0.339157,0.162557 0.121384,0.265288 -0.140099,0.0660744 -0.320906,-0.105267 -0.121384,-0.265288zm-1.3244 1.65993c-0.272248,-0.0264483 -0.979764,-0.314039 -1.10826,-0.662167 -0.0343364,-0.0930796 -0.0529276,-0.403499 -0.0540103,-0.527636 -0.00148482,-0.168805 0.0300985,-0.369874 0.0674974,-0.524945 0.0275001,-0.114022 0.0157453,-0.132613 0.0907595,-0.206916 0.245861,-0.243603 0.724096,-0.392549 1.09181,-0.354779 -0.111423,0.346953 -0.226311,0.707547 -0.229033,1.08645 -0.00163949,0.230827 -0.0023819,0.422771 0.0221795,0.637575 0.0241592,0.211215 0.110093,0.451168 0.119064,0.552414zm2.30063 -2.62627c0.194728,-0.0670952 0.257771,0.241964 0.0911617,0.30711 -0.179385,0.0701886 -0.295943,-0.236581 -0.0911617,-0.30711zm-3.23749 0.434742c0.0158999,-0.0940076 0.23488,-0.410862 0.292757,-0.481545 0.108856,-0.132953 0.232993,-0.276486 0.375412,-0.394034 0.303676,-0.250718 0.578646,-0.414172 1.02527,-0.515015 1.80764,-0.408139 3.37137,1.13805 3.03305,2.9065 -0.118878,0.621396 -0.396323,1.07952 -0.842232,1.46592 -0.0781076,0.0677139 -0.36443,0.280785 -0.477245,0.300923 0.214309,-0.258637 0.247996,-0.232281 0.480555,-0.596526 0.13419,-0.210164 0.256533,-0.487546 0.308471,-0.758495 0.0273763,-0.143007 0.0572583,-0.329661 0.0624242,-0.476627 0.00300057,-0.0851915 -0.00479473,-0.181055 0.0175704,-0.247872 0.0187458,-0.05599 0.0234168,-0.0379866 0.0684872,-0.0688894 0.142171,-0.0974721 0.195934,-0.314379 0.0856245,-0.457819 -0.0940385,-0.122281 -0.193862,-0.142821 -0.378505,-0.121972l-0.247996 -0.330805c-0.0867381,-0.107649 -0.159371,-0.213505 -0.249419,-0.311812 0.0368111,-0.0893984 0.0687657,-0.141707 0.0586813,-0.245954 -0.0197048,-0.203389 -0.318865,-0.408232 -0.554178,-0.202523 -0.149379,0.130571 -0.147214,0.34423 -0.0571964,0.462304 0.172672,0.226528 0.377329,0.116063 0.430412,0.11297 0.0575058,0.0721065 0.424782,0.533235 0.461902,0.610415 -0.0431525,0.110526 -0.0618674,0.13054 -0.0555879,0.25709 0.0126519,0.255018 0.23123,0.207596 0.25344,0.363904 0.036873,0.259503 -0.0722302,0.794007 -0.183932,1.02944 -0.166362,0.350665 -0.339683,0.616602 -0.659228,0.858813 -0.219351,0.166238 -0.564262,0.361522 -0.857359,0.368513l0.15603 -0.0974721c0.336806,-0.204843 0.60692,-0.550868 0.721776,-0.934941 0.0207256,-0.0692915 0.0371205,-0.119992 0.0533916,-0.190644 0.0137655,-0.0599186 0.0265721,-0.129705 0.0407397,-0.193212 0.0243448,-0.109103 0.134562,-0.0555879 0.21666,-0.254584 0.0573202,-0.138923 -0.015869,-0.286044 -0.0887798,-0.357779 -0.151823,-0.149317 -0.329228,-0.0385434 -0.368885,-0.0583101l-0.531318 -0.598506c0.0370586,-0.105051 0.119621,-0.231013 -0.0490918,-0.423792 -0.266216,-0.24416 -0.685244,0.131004 -0.492496,0.428215 0.142388,0.219537 0.355428,0.124663 0.410459,0.121167l0.535153 0.600949c-0.0203544,0.137655 -0.0582173,0.240695 0.0271598,0.357223 0.109846,0.149874 0.195965,0.0883158 0.165526,0.243294 -0.125096,0.636863 -0.557487,1.25217 -1.29408,1.25764 -0.160329,0.00117548 -0.24382,-0.00402138 -0.388682,-0.0379557 -0.102236,-0.0239736 -0.24252,-0.0697246 -0.320473,-0.105762 -0.394343,-0.182261 -0.667952,-0.408511 -0.935126,-0.764032 -0.0577532,-0.0768394 -0.284497,-0.45389 -0.288302,-0.554394 0.374484,0.206606 0.408696,0.236272 0.826271,0.358707 0.250439,0.0734366 0.197481,0.0079809 0.256533,0.127447 0.100566,0.203451 0.164103,0.330032 0.291891,0.497569 0.0512572,0.067219 0.12157,0.135118 0.204472,0.191789 0.0347695,0.0237571 0.223001,0.110866 0.269433,0.117084 -0.113248,-0.121508 -0.243881,-0.254151 -0.341694,-0.386486 -0.0684872,-0.0926465 -0.238375,-0.348345 -0.263184,-0.463078 0.126643,0.00881611 0.234663,0.0220557 0.357625,0.0171991 0.203173,-0.00804277 0.923031,-0.0694771 1.06294,-0.193831 -0.118074,-0.107371 -0.109815,-0.120982 -0.210226,-0.0872021 -0.314534,0.105762 -0.853709,0.160299 -1.19172,0.0978124 -0.0132087,-0.00244376 -0.0820981,-0.00764063 -0.0918113,-0.0212824l-0.14081 -0.530761c-0.0395952,-0.178457 -0.0374298,-0.441146 -0.0317071,-0.644535 0.0118785,-0.422121 0.112753,-0.781293 0.240912,-1.11003 0.149162,-0.0446992 0.919876,0.268969 0.941313,0.312369 0.0352644,-0.00921825 0.118043,-0.030346 0.121972,-0.041544 0.00133015,-0.00377391 0.00528967,-0.0030315 0.00773343,-0.00485659l-0.499827 -0.281095c-0.236086,-0.0904193 -0.371452,-0.113929 -0.484329,-0.146286 0.0341199,-0.0777983 0.0380485,-0.0895531 0.080273,-0.162464 0.134221,-0.231879 0.327557,-0.487763 0.528997,-0.647721 0.08448,-0.0670952 0.25443,-0.161257 0.260617,-0.201162l-0.380763 0.124415c-0.117177,0.0883158 -0.183035,0.153555 -0.266525,0.246387 -0.156122,0.173569 -0.284961,0.402448 -0.403747,0.620066 -0.243417,0.00934198 -0.371576,0.00677448 -0.614065,0.0594855 -0.292726,0.0635997 -0.436908,0.176786 -0.491413,0.187984zm-0.421224 1.18337c0.0134562,0.0903265 0.0192098,0.213133 0.029882,0.309182 0.0286137,0.258235 0.135459,0.539113 0.244129,0.768579 0.285209,0.602249 0.805885,1.03529 1.41308,1.30237 0.337765,0.148575 0.712651,0.203853 1.15107,0.19581 0.379185,-0.00692915 0.80539,-0.151885 1.07445,-0.282115 0.317194,-0.153555 0.575182,-0.366781 0.774518,-0.583719 0.322082,-0.35051 0.58938,-0.899398 0.65895,-1.36931 0.0476379,-0.321896 0.0498342,-0.271629 0.0444518,-0.629718 -0.0103009,-0.68512 -0.399973,-1.41231 -0.864876,-1.84736 -0.196646,-0.183994 -0.566273,-0.429638 -0.832519,-0.524883 -0.0838304,-0.0299748 -0.155442,-0.0593309 -0.251244,-0.0910379 -0.237695,-0.0786644 -0.63312,-0.136201 -0.892531,-0.115197 -0.404489,0.0327588 -0.515263,0.0717353 -0.840376,0.189933 -0.36774,0.133726 -0.754504,0.434186 -0.99291,0.694029 -0.205029,0.223465 -0.417358,0.534937 -0.526244,0.830941 -0.10236,0.278249 -0.0879755,0.251522 -0.147832,0.527822 -0.0309647,0.142914 -0.0672808,0.454942 -0.042008,0.624675z"/>
   <path id="_778916648" class="fil1" d="M1.36659 3.9859c-0.00897078,-0.101246 -0.0949046,-0.341199 -0.119064,-0.552414 -0.0245614,-0.214804 -0.023819,-0.406747 -0.0221795,-0.637575 0.00272217,-0.378907 0.11761,-0.739501 0.229033,-1.08645 -0.367709,-0.0377701 -0.845944,0.111176 -1.09181,0.354779 -0.0750143,0.0743028 -0.0632595,0.092894 -0.0907595,0.206916 -0.0373989,0.155071 -0.0689822,0.35614 -0.0674974,0.524945 0.00108268,0.124137 0.0196738,0.434557 0.0540103,0.527636 0.128499,0.348128 0.836015,0.635719 1.10826,0.662167z"/>
   <path id="_778917224" class="fil1" d="M3.66722 1.35963c-0.204781,0.0705289 -0.088223,0.377299 0.0911617,0.30711 0.166609,-0.0651464 0.103566,-0.374205 -0.0911617,-0.30711z"/>
   <path id="_778917296" class="fil1" d="M4.54308 2.51466c-0.200914,0.077922 -0.0781386,0.359759 0.0939457,0.297861 0.0581554,-0.0209112 0.123085,-0.0971319 0.100071,-0.195223 -0.0186221,-0.0794997 -0.106072,-0.136758 -0.194016,-0.102638z"/>
   <path id="_778917536" class="fil1" d="M3.64662 3.39442c-0.187953,0.101339 -0.0316452,0.36477 0.12027,0.290777 0.180808,-0.0880064 0.0567634,-0.386238 -0.12027,-0.290777z"/>
   <path id="_778918328" class="fil1" d="M2.68143 2.33392c-0.194944,0.126735 -0.00915638,0.323412 0.130942,0.257338 0.22328,-0.141336 -0.00290777,-0.363131 -0.130942,-0.257338z"/>
  </g>
 </g>
</svg>
