<?xml version="1.0" encoding="UTF-8"?>
<!DOCTYPE svg PUBLIC "-//W3C//DTD SVG 1.1//EN" "http://www.w3.org/Graphics/SVG/1.1/DTD/svg11.dtd">
<!-- Creator: CorelDRAW -->
<svg xmlns="http://www.w3.org/2000/svg" xml:space="preserve" width="54.1972mm" height="16.9551mm" style="shape-rendering:geometricPrecision; text-rendering:geometricPrecision; image-rendering:optimizeQuality; fill-rule:evenodd; clip-rule:evenodd"
viewBox="0 0 100.16 31.3342"
 xmlns:xlink="http://www.w3.org/1999/xlink">
 <defs>
  <style type="text/css">
   <![CDATA[
    .str0 {stroke:black;stroke-width:0.577152}
    .fil2 {fill:none}
    .fil1 {fill:black}
    .fil0 {fill:black;fill-rule:nonzero}
   ]]>
  </style>
 </defs>
 <g id="Layer_x0020_1">
  <metadata id="CorelCorpID_0Corel-Layer"/>
  <g id="_776143912">
   <path id="_801322336" class="fil0" d="M85.1518 28.4625l-0.696907 0 0 1.94047c0,0.293288 0.106079,0.438916 0.316944,0.438916 0.0717051,0 0.163739,-0.0194047 0.276101,-0.0589534l0 0.438916c-0.127332,0.0480498 -0.254849,0.0717051 -0.382181,0.0717051 -0.485857,0 -0.727769,-0.289038 -0.727769,-0.868038l0 -1.96302 -1.22009 0 0 1.91589c0,0.401401 -0.0332652,0.69358 -0.0996109,0.877648l-0.524482 0c0.0759556,-0.182035 0.113471,-0.474214 0.113471,-0.877648l0 -1.91589c-0.25799,0.00646824 -0.511545,0.0985021 -0.761959,0.278319l0 -0.469779c0.156162,-0.150987 0.413043,-0.226019 0.768427,-0.226019l2.93806 0 0 0.417479z"/>
   <path id="_8013223361" class="fil0" d="M88.0117 31.1875c-0.271851,0.0973932 -0.611156,0.146737 -1.01903,0.146737 -0.407684,0 -0.728878,-0.0857504 -0.964322,-0.25799 -0.235444,-0.173349 -0.353166,-0.402509 -0.353166,-0.68933 0,-0.193678 0.0728139,-0.361667 0.218257,-0.503968 0.145628,-0.142486 0.337273,-0.235629 0.574749,-0.279428l0 -0.0129365c-0.179817,-0.037331 -0.335979,-0.123081 -0.469779,-0.257806 -0.1338,-0.134909 -0.200146,-0.289038 -0.200146,-0.463496 0,-0.283679 0.111254,-0.505262 0.333946,-0.66475 0.222692,-0.158379 0.519122,-0.237477 0.891508,-0.237477 0.298648,0 0.581218,0.0471258 0.8466,0.141192l0 0.516905c-0.278134,-0.14877 -0.570499,-0.222507 -0.877648,-0.222507 -0.44945,0 -0.674175,0.154129 -0.674175,0.461278 0,0.156347 0.0844567,0.28257 0.253555,0.378854 0.169098,0.0962844 0.385322,0.144519 0.646454,0.144519 0.152096,0 0.275177,-0.00425056 0.369244,-0.0127517l0 0.457951c-0.151911,-0.00850112 -0.298463,-0.0127517 -0.438731,-0.0127517 -0.635736,0 -0.952679,0.186285 -0.952679,0.558671 0,0.156347 0.0728139,0.28257 0.220475,0.377745 0.147845,0.0953603 0.355384,0.142486 0.622984,0.142486 0.348915,0 0.673251,-0.0761404 0.971899,-0.229161l0 0.518014z"/>
   <path id="_80132233612" class="fil0" d="M91.2569 28.4593l-1.22564 0 0 1.93715c0,0.297539 0.121048,0.445385 0.362961,0.445385 0.113471,0 0.225834,-0.0203288 0.339305,-0.0620951l0 0.4452c-0.138236,0.0460169 -0.28257,0.0685633 -0.432448,0.0685633 -0.52134,0 -0.781363,-0.300866 -0.781363,-0.903336l0 -1.93086 -0.442058 0c-0.238586,0 -0.484748,0.0920338 -0.739597,0.276101l0 -0.46442c0.158379,-0.150987 0.408978,-0.226019 0.752534,-0.226019l2.16631 0 0 0.414337z"/>
   <path id="_801322336123" class="fil0" d="M95.4309 31.256l-0.58325 0 -0.476432 -1.26075 -1.90721 0 -0.448526 1.26075 -0.586392 0 1.72536 -4.49635 0.545735 0 1.73072 4.49635zm-1.23303 -1.73386l-0.705223 -1.91589c-0.0225464,-0.0632039 -0.0460169,-0.163739 -0.0685633,-0.300681l-0.0127517 0c-0.0214376,0.127332 -0.0450929,0.226758 -0.0718899,0.300681l-0.699864 1.91589 1.55829 0z"/>
   <path id="_801321904" class="fil1" d="M85.8313 13.4229c-3.56012,-4.66767 -5.49209,-9.17899 -4.31524,-10.0766 1.17667,-0.897422 5.01658,2.15873 8.5767,6.82621 3.55993,4.66748 5.49191,9.17899 4.31524,10.0764 -1.17685,0.897607 -5.01677,-2.15854 -8.5767,-6.82603zm0.161336 -0.123081c-3.2903,-4.31413 -5.07609,-8.48374 -3.9885,-9.31334 1.08777,-0.829598 4.6368,1.99517 7.92729,6.30912 3.2903,4.31395 5.07591,8.48374 3.98832,9.31334 -1.08759,0.829598 -4.6368,-1.99517 -7.92711,-6.30912z"/>
   <path id="_801322432" class="fil1" d="M90.0928 13.4229c3.55993,-4.66767 5.49191,-9.17899 4.31524,-10.0766 -1.17685,-0.897422 -5.01677,2.15873 -8.5767,6.82621 -3.56012,4.66748 -5.49209,9.17899 -4.31524,10.0764 1.17667,0.897607 5.01658,-2.15854 8.5767,-6.82603zm-0.161336 -0.123081c3.2903,-4.31413 5.07591,-8.48374 3.98832,-9.31334 -1.08759,-0.829598 -4.6368,1.99517 -7.92711,6.30912 -3.2903,4.31395 -5.07609,8.48374 -3.9885,9.31334 1.08777,0.829598 4.6368,-1.99517 7.92729,-6.30912z"/>
   <path id="_801322792" class="fil1" d="M98.1764 11.4148c0.179632,0 0.325445,0.145628 0.325445,0.325445 0,0.179817 -0.145813,0.325445 -0.325445,0.325445 -0.179817,0 -0.325445,-0.145628 -0.325445,-0.325445 0,-0.179817 0.145628,-0.325445 0.325445,-0.325445zm-10.2145 -2.29696c5.87039,0 10.629,1.19995 10.629,2.67988 0,1.48012 -4.75859,2.6797 -10.629,2.6797 -5.87021,0 -10.629,-1.19958 -10.629,-2.6797 0,-1.47993 4.75878,-2.67988 10.629,-2.67988zm0 0.203103c5.42574,0 9.82396,1.10884 9.82396,2.47678 0,1.36794 -4.39822,2.47678 -9.82396,2.47678 -5.42556,0 -9.82396,-1.10884 -9.82396,-2.47678 0,-1.36794 4.3984,-2.47678 9.82396,-2.47678z"/>
   <circle id="_801323224" class="fil1" cx="87.962" cy="11.7977" r="2.24962"/>
   <circle id="_801323800" class="fil2 str0" cx="87.614" cy="12.5462" r="12.2575"/>
   <path id="_801323752" class="fil0" d="M1.64367 12.8116l2.68099 0c0.253925,0 0.476432,-0.0589534 0.669186,-0.179078 0.192938,-0.118092 0.340599,-0.287375 0.446863,-0.505816 0.106264,-0.220475 0.159488,-0.472551 0.159488,-0.75586l0 0c0,-0.289408 -0.0532244,-0.543332 -0.159488,-0.761774 -0.106264,-0.218627 -0.253925,-0.389758 -0.446863,-0.509882 -0.192754,-0.122157 -0.415261,-0.181111 -0.669186,-0.181111l-2.68099 0 0 -1.12011 2.64163 0c0.499903,0 0.939004,0.106264 1.32081,0.320825 0.379963,0.212713 0.675099,0.513763 0.883746,0.901673 0.21068,0.389758 0.315096,0.838469 0.315096,1.35038l0 0c0,0.51173 -0.104416,0.960441 -0.315096,1.34632 -0.208647,0.385877 -0.503784,0.685079 -0.883746,0.897607 -0.381811,0.21068 -0.820912,0.316944 -1.32081,0.316944l-2.64163 0 0 -1.12011zm-0.606351 -4.01364l1.17722 0 0 8.38561 -1.17722 0 0 -8.38561z"/>
   <path id="_8013237521" class="fil0" d="M11.1651 17.2702c-0.584729,0 -1.10034,-0.128071 -1.5472,-0.383844 -0.445015,-0.255958 -0.789495,-0.616146 -1.03547,-1.08463 -0.24413,-0.466637 -0.366102,-1.00794 -0.366102,-1.62205l0 -2.37588c0,-0.616146 0.121973,-1.15745 0.366102,-1.6239 0.245978,-0.466637 0.590458,-0.828859 1.03547,-1.08463 0.446863,-0.255958 0.962474,-0.383844 1.5472,-0.383844 0.582511,0 1.09831,0.127886 1.54517,0.383844 0.44483,0.255773 0.791343,0.617994 1.03547,1.08463 0.243945,0.466453 0.366102,1.00775 0.366102,1.6239l0 2.37588c0,0.614113 -0.122157,1.15541 -0.366102,1.62205 -0.24413,0.468485 -0.590643,0.828674 -1.03547,1.08463 -0.446863,0.255773 -0.962659,0.383844 -1.54517,0.383844zm0 -1.15948c0.34448,0 0.649596,-0.0766948 0.913316,-0.23415 0.263719,-0.155607 0.466453,-0.376082 0.610232,-0.661424 0.145628,-0.287375 0.216409,-0.618179 0.216409,-0.996109l0 -2.45664c0,-0.375897 -0.070781,-0.70855 -0.216409,-0.994076 -0.14378,-0.287375 -0.346513,-0.507849 -0.610232,-0.663272 -0.263719,-0.155607 -0.568836,-0.234335 -0.913316,-0.234335 -0.346513,0 -0.651629,0.0787277 -0.915348,0.234335 -0.263904,0.155423 -0.466637,0.375897 -0.610232,0.663272 -0.145628,0.285527 -0.216594,0.618179 -0.216594,0.994076l0 2.45664c0,0.37793 0.0709658,0.708734 0.216594,0.996109 0.143595,0.285342 0.346328,0.505816 0.610232,0.661424 0.263719,0.157455 0.568836,0.23415 0.915348,0.23415z"/>
   <polygon id="_80132375212" class="fil0" points="19.5723,8.79792 20.3794,8.79792 22.0979,15.3726 23.5801,8.79792 24.8024,8.79792 22.7553,17.1835 21.5564,17.1835 20.0113,11.3235 18.3951,17.1835 17.1965,17.1835 15.1492,8.79792 16.3717,8.79792 17.8538,15.3726 "/>
   <path id="_801323752123" class="fil0" d="M26.013 8.79792l1.17722 0 0 8.38561 -1.17722 0 0 -8.38561zm0.570868 7.26753l4.81681 0 0 1.11808 -4.81681 0 0 -1.11808zm0 -3.60429l4.18107 0 0 1.11808 -4.18107 0 0 -1.11808zm0 -3.66324l4.81681 0 0 1.12011 -4.81681 0 0 -1.12011z"/>
   <path id="_8013237521234" class="fil0" d="M33.5857 12.5183l2.86026 0c0.224356,0 0.421175,-0.0530396 0.594339,-0.161336 0.173349,-0.108297 0.307149,-0.259838 0.401585,-0.458691 0.0925882,-0.198852 0.139714,-0.425241 0.139714,-0.683046l0 0c0,-0.257806 -0.0471258,-0.486227 -0.139714,-0.683046 -0.0944363,-0.198852 -0.228236,-0.352242 -0.399552,-0.458691 -0.169283,-0.108112 -0.369983,-0.161336 -0.596372,-0.161336l-2.86026 0 0 -1.12011 2.81498 0c0.484194,0 0.909435,0.100535 1.27739,0.301235 0.366287,0.198852 0.651629,0.482346 0.852329,0.850296 0.202733,0.366287 0.303268,0.791343 0.303268,1.27166l0 0c0,0.480313 -0.102383,0.903521 -0.305116,1.27166 -0.204766,0.366102 -0.490108,0.649596 -0.856395,0.850296 -0.36795,0.198852 -0.791158,0.299202 -1.27147,0.299202l-2.81498 0 0 -1.11808zm-0.513763 -3.72626l1.17722 0 0 8.39153 -1.17722 0 0 -8.39153zm2.79724 4.5845l1.17112 -0.263719 2.14561 4.07074 -1.39566 0 -1.92107 -3.80702z"/>
   <path id="_80132375212345" class="fil0" d="M40.7704 8.79792l1.17722 0 0 8.38561 -1.17722 0 0 -8.38561zm0.570868 7.26753l4.81681 0 0 1.11808 -4.81681 0 0 -1.11808zm0 -3.60429l4.18107 0 0 1.11808 -4.18107 0 0 -1.11808zm0 -3.66324l4.81681 0 0 1.12011 -4.81681 0 0 -1.12011z"/>
   <path id="_801323752123456" class="fil0" d="M48.6266 16.0654l1.8976 0c0.617994,0 1.09831,-0.161336 1.43687,-0.482346 0.340599,-0.320825 0.511915,-0.773602 0.511915,-1.35815l0 -2.46847c0,-0.584544 -0.171316,-1.03732 -0.511915,-1.35815 -0.338566,-0.320825 -0.818879,-0.480313 -1.43687,-0.480313l-1.8976 0 0 -1.12011 1.86211 0c0.673251,0 1.248,0.118092 1.72443,0.352427 0.476247,0.23415 0.840502,0.576782 1.09055,1.02549 0.249859,0.450744 0.373864,0.992228 0.373864,1.62796l0 2.37588c0,0.633888 -0.124005,1.17519 -0.373864,1.62593 -0.250044,0.448896 -0.614298,0.791343 -1.09461,1.02549 -0.47828,0.234335 -1.05303,0.352427 -1.72628,0.352427l-1.8562 0 0 -1.11808zm-0.797257 -7.26753l1.17722 0 0 8.38561 -1.17722 0 0 -8.38561z"/>
   <path id="_8013237521234567" class="fil0" d="M59.4452 16.093l2.27146 0c0.596557,0 1.03141,-0.112178 1.30307,-0.340599 0.273699,-0.226204 0.409532,-0.54518 0.409532,-0.95656l0 -0.0177415c0,-0.283494 -0.0491586,-0.527439 -0.145628,-0.732205 -0.0985021,-0.202733 -0.253925,-0.360189 -0.464604,-0.470518 -0.212528,-0.108297 -0.482346,-0.163369 -0.812965,-0.163369l-2.56087 0 0 -1.06098 2.56087 0c0.433002,0 0.761774,-0.102383 0.982248,-0.305116 0.222507,-0.204766 0.332652,-0.505816 0.332652,-0.905554l0 0c0,-0.419142 -0.124005,-0.732205 -0.369983,-0.940852 -0.246163,-0.206614 -0.614298,-0.31103 -1.10644,-0.31103l-2.39935 0 0 -1.09055 2.61206 0c0.541299,0 0.995924,0.0925882 1.36018,0.27758 0.366102,0.184992 0.639801,0.44483 0.818879,0.783396 0.181111,0.338566 0.271666,0.742184 0.271666,1.2127l0 0c0,0.287375 -0.0550724,0.557008 -0.167435,0.8089 -0.110145,0.252077 -0.281461,0.466637 -0.509697,0.645715 -0.228421,0.179078 -0.511915,0.299202 -0.850481,0.360189 0.338566,0.0511915 0.630007,0.171316 0.875985,0.360189 0.246163,0.19109 0.435035,0.429122 0.564955,0.712615 0.131952,0.285527 0.196819,0.592491 0.196819,0.923295l0 0.0175567c0,0.452777 -0.10035,0.852329 -0.299202,1.19884 -0.2007,0.346513 -0.488075,0.614113 -0.860091,0.801138 -0.372201,0.189057 -0.807052,0.283494 -1.30326,0.283494l-2.71038 0 0 -1.09055zm-0.693026 -7.29507l1.17131 0 0 8.38561 -1.17131 0 0 -8.38561z"/>
   <polygon id="_80132375212345678" class="fil0" points="68.8977,13.7762 68.8977,17.1835 67.7204,17.1835 67.7204,13.7762 65.1655,8.79792 66.4745,8.79792 68.3091,12.5813 70.1416,8.79792 71.4506,8.79792 "/>
  </g>
 </g>
</svg>
